<svg xmlns="http://www.w3.org/2000/svg" xmlns:xlink="http://www.w3.org/1999/xlink" width="1607.63" height="794.677" viewBox="0 0 1607.63 794.677"><defs><linearGradient id="a" x1="0.5" x2="0.5" y2="1" gradientUnits="objectBoundingBox"><stop offset="0" stop-color="#3ec42c"/><stop offset="1" stop-color="#1f6216"/></linearGradient><linearGradient id="m" x1="0.5" x2="0.5" y2="1" gradientUnits="objectBoundingBox"><stop offset="0" stop-color="#3dc32b"/><stop offset="1" stop-color="#1f6216"/></linearGradient><linearGradient id="n" x1="0.5" x2="0.5" y2="1" gradientUnits="objectBoundingBox"><stop offset="0" stop-color="#fff"/><stop offset="1" stop-color="#656565"/></linearGradient></defs><g transform="translate(-191.87 -142.441)"><g transform="translate(-358.775 71.049)"><path d="M1010.118,575.305s28.94,59.711,72.084,43.741c-20.719,20.078-28.546,19.6-28.546,19.6s25.725,46.644,103.75,26.287c2.487,27.929-34.505,34.658-40.476,34.59,3.738,12.4,72.51,145.5-74.031,252.867,18.185-31.5,111.951-151.669,17.175-258.923,6,28.214,67.951,230.073-105.563,277.171,15.318-12.213,136.147-53.137,65.138-243.355-1.838-5.643-25.587-127.011-9.959-151.228C1010.116,575.3,1010.118,575.305,1010.118,575.305Z" transform="translate(-83.811 -104.573)" fill="url(#a)"/><path d="M980.4,568.427s-33.888-27.481-51.892-53.265c0,5.1-19.96,70.069,11.583,171.174,2.967,11.134,82.277,161.907-51.418,227.764,6.891.8,158.072,14.288,94.591-227.764-.385-1.466-17.245-77.716-3.07-116.06.032-.086.792-1.377.206-1.849" transform="translate(-70.148 -92.092)" fill="url(#a)"/><path d="M903.233,381.772c.043.063-46.166,112.025,4.142,284.059.108.368,45.247,167.606-57.834,198.517,4.743-5.444,76.149-19.77-.924-215.623-.12-.3-39.82-64.988,51.967-266.953C903.437,380.569,903.19,381.71,903.233,381.772Z" transform="translate(-60.042 -64.297)" fill="url(#a)"/><path d="M827.387,334.416s-.045.032-.324.25c-3.251,2.493-71.946,59.047-60.744,355.116-7.117-4.8-110.793-80.435-30.376-287.77-4.777,2.685-89.753,67.248-57.514,207.182-7.043-6.725-54.015-46.464-62.381-108.124-13.853,7.464-35.421,23.407-65.4,1.613,14.629-15.391,38.423-29.047,54.024-59.427,27.261-100.825,90.546-207.8,213.015-222.938.372,24.356,5.765,8.368-37.327,44.322-2.379,1.985-129.12,70.192-117.407,204.989,1.758-8.119,49.2-211.452,147.342-197.475,13.79,18.378,13.607,18.7,13.607,18.7s-64.932,56.818-58.559,115.222c.653-8.946,12.692-38.261,61.146-70.875" transform="translate(0 -30.905)" fill="url(#a)"/><path d="M621.4,337.216s6.688-144.149,201.723-135.977c-5.774,8.536-6.376,9.45-6.376,9.45S679.263,260.411,621.4,337.216Z" transform="translate(-14.683 -26.877)" fill="url(#a)"/><path d="M857.992,171.777s-5.023-18.914,35.338-28.679c-6.5-2.808-132.85-61.32-182.613,43.59C723.193,183.421,774.119,138.861,857.992,171.777Z" transform="translate(-33.218 -10.982)" fill="url(#a)"/><path d="M862.049,84.892s82.073-52.012,99.072,48.142c-18.687.288-19.323,0-19.323,0S903.073,91.083,862.049,84.892Z" transform="translate(-64.623 0)" fill="url(#a)"/><path d="M998.214,165.322s52.669-52.8-.147-89.991c-6.026-.612-28.662-2.484-24.362,0s27.036,26.7,16.741,71.154C996.185,161.923,998.214,165.322,998.214,165.322Z" transform="translate(-87.682 -0.557)" fill="url(#a)"/><path d="M1069.584,135.408s-13.508,1.765-23.628-7.812c-.521,16.209,2.217,23.623-17.464,44.681C1031.208,173.656,1064.279,186.059,1069.584,135.408Z" transform="translate(-99.164 -11.664)" fill="url(#a)"/><path d="M1118.129,169.895s-16.279,8.234-28.315-16.189c-5.424,10.159-5.121,13.283-19.278,34.025a174.131,174.131,0,0,0,16.261,13.316C1086.368,200.616,1098.62,181.208,1118.129,169.895Z" transform="translate(-107.889 -17.082)" fill="url(#a)"/><path d="M972.377,220.465s7.728-8.462-11.12-22.227c-.454-4.363-19.73-26.618-42.345,6.718-1.028,4.934-14.186,82.934,29.836,85.14,3.223-1.7,3.611-6.3,3.611-6.3s-19.852-.94-7.494-78.836c13.5.471,17.309-2.653,23.341,15.509C968.556,221.421,972.737,221.139,972.377,220.465Z" transform="translate(-75.878 -23.975)" fill="url(#a)"/><path d="M1000.647,216.032c0-.529,11.863-16.367,11.863-16.367s33.218,2.079,60.843,37.245c3.425,2.7,14.209,25.16,17.576,27.063-2.212,4.968-3.9,5.961-3.9,5.961s-16.612-14.33-18.194-18.457c-2.554,3.625-3.063,21.656,30.182,36.813.827,5.417-3.124,17.335-8.089,20.944-4.668-.023-18.928-8.247-22.094-14.516-6.6,3.7-7.735,4.667-7.735,4.667h-3.524l-2.662,1.718s29.142,8.742,24.5,29.874c27.928-25.225,29.006-25.351,29.006-25.351s-3.029-1.059-2.692-2.113,3.423-4.127,3.423-4.127,2.354-5.046,2.972,0c-.2,1.763,0,2.091,0,2.091s58.2,43.122,63.957,76.686c-9.13,5.99-25.945,11.449-47.1-4.436-1.232,15-5.149,20.625,13.693,39.848,1.267-2.468-9.132-17.7-7.932-19.739s21.615,3.318,21.615,3.318a28.85,28.85,0,0,0-1.167,9.686,56.543,56.543,0,0,1,0,8.84s-.987,18.856-14.68,23.24c-15.574,3.477-23.654,3.9-23.654,3.9a47.359,47.359,0,0,0-28.348,29.637c19.6-10.479,34.717-22.21,62.526-16.424-.159,17.5-6.385,39.675-22.585,49.885-1.708-16.274-2.759-21.109-2.759-21.109s-6.511,8.6-8.066,17.093c-2.632.194-9.725,2.31-9.422-24.861-11.1,18.766-7.3,19.844-27.636,22.935-8.93-6.209-19.943-7.316-6.93-33.627,2.618-7.474,14.077-54.312-47.051-54.225,10.278,1.688,19.58,2.973,26.688,13.267-7.934,2.1-58.381-1.208-32.739,55.887-7.391-4.086-78.244-67.231-20.442-110.512,7.8-2.414,9.867-6.241,38.716,9.3,13.678.493,15.791,7.049,44.513-27.819-33.092,18.143-22.487,25.15-34.584,18.518s-78.672-84.322-95.216,36.84c-11.988-1.4-14.3,9.446-3.066-95.658,5.984-4.2,19.524-10.212,23.616-27.352,12.814,10.011,43.953,37.36,62.288,16.888-.306-2.992-5.709-5.093-30.675-14.407C1007.077,275.36,1041.762,243.1,1000.647,216.032Z" transform="translate(-81.456 -26.62)" fill="url(#a)"/></g><path d="M89.75,0l63.5-178.5H128.5L77-23.75h-.5L25.5-178.5H0L62.75,0Zm82.5-178.5V0h124V-20H196V-81.75h92.75v-20H196V-158.5h99.5v-20Zm152.75,0V0h23.75V-76.25h58q8.75,0,14,2.625a23.438,23.438,0,0,1,8.5,7A29.02,29.02,0,0,1,434-56.375Q435.5-50.5,436.5-44A87.134,87.134,0,0,1,438-30.75q.25,6.75.5,12.625A77.037,77.037,0,0,0,439.625-7.5,14.906,14.906,0,0,0,443,0h26.5a30.513,30.513,0,0,1-5.625-10.375A81.314,81.314,0,0,1,461-22.75,115.083,115.083,0,0,1,459.75-36q-.25-6.75-.75-13.25a114.9,114.9,0,0,0-2.125-12.5,37.939,37.939,0,0,0-4.25-10.875A27.4,27.4,0,0,0,444.875-81a31.8,31.8,0,0,0-12.625-5v-.5q16.25-4.5,23.625-16.75t7.375-28.5q0-21.75-14.375-34.25T409-178.5Zm73.25,82.25h-49.5V-158.5h59q16.75,0,24.25,8.5t7.5,22q0,9.75-3.375,15.875a26.7,26.7,0,0,1-9,9.75A34.365,34.365,0,0,1,414-97.5,95.734,95.734,0,0,1,398.25-96.25Zm134-62.25V0H556V-158.5h59.5v-20H472.75v20Z" transform="translate(903 506)" fill="url(#m)"/><path d="M43.25-20V-158.5h40q16.5,0,27.75,4.625a45.024,45.024,0,0,1,18.375,13.5,54.882,54.882,0,0,1,10.25,21.5A119.487,119.487,0,0,1,142.75-90.25q0,16.5-3.375,28.125A68.5,68.5,0,0,1,130.75-42.75,45.125,45.125,0,0,1,118.875-30.5,58.272,58.272,0,0,1,105.5-23.625a56.092,56.092,0,0,1-12.75,3,99.613,99.613,0,0,1-10,.625ZM19.5-178.5V0H80.75Q103,0,119.25-6.25A67.177,67.177,0,0,0,146-24.375q10.5-11.875,15.5-29.25t5-39.875q0-43-22.25-64t-63.5-21Zm177,0V0h23.75V-178.5ZM393.75-22.25,400,0h15V-94H336.75v20h57a60.692,60.692,0,0,1-3.25,22.875,52.067,52.067,0,0,1-11.125,18.5A51.911,51.911,0,0,1,361.25-20.25a63.656,63.656,0,0,1-24.75,4.5q-15,0-26.375-5.875A57.591,57.591,0,0,1,291-37.375a70.186,70.186,0,0,1-11.75-22.75,90.058,90.058,0,0,1-4-26.875,111.588,111.588,0,0,1,3.5-27.875,74.7,74.7,0,0,1,10.875-24.25,56.093,56.093,0,0,1,19-17.125q11.625-6.5,27.875-6.5a72.751,72.751,0,0,1,18.875,2.375,51.933,51.933,0,0,1,15.875,7.125A41.832,41.832,0,0,1,383-141.125a46.705,46.705,0,0,1,6.5,17.625h23.75q-2.5-15.75-9.375-26.875a63.067,63.067,0,0,0-17-18.375,69.273,69.273,0,0,0-23-10.625A107.592,107.592,0,0,0,336.5-182.75q-21.25,0-37.125,7.875a77.744,77.744,0,0,0-26.5,21.125,91.386,91.386,0,0,0-16,30.875A126.577,126.577,0,0,0,251.5-85.75,100.433,100.433,0,0,0,257.25-52,86.967,86.967,0,0,0,274-23.25,80.794,80.794,0,0,0,300.75-3.375Q316.5,4,336.5,4a84.427,84.427,0,0,0,31.25-6.125A59.346,59.346,0,0,0,393.75-22.25ZM451-178.5V0h23.75V-178.5Zm104.25,20V0H579V-158.5h59.5v-20H495.75v20ZM666-73.75,696.25-157h.5L726.5-73.75ZM683.75-178.5,614.25,0H638.5l20-53.75H734L753.5,0h26.25L710-178.5Zm113.5,0V0H915.5V-20H821V-178.5Z" transform="translate(884 802)" fill="url(#n)"/></g></svg>