<?xml version="1.0" encoding="UTF-8" standalone="no"?>
<svg
   xmlns:dc="http://purl.org/dc/elements/1.1/"
   xmlns:cc="http://creativecommons.org/ns#"
   xmlns:rdf="http://www.w3.org/1999/02/22-rdf-syntax-ns#"
   xmlns:svg="http://www.w3.org/2000/svg"
   xmlns="http://www.w3.org/2000/svg"
   xmlns:sodipodi="http://sodipodi.sourceforge.net/DTD/sodipodi-0.dtd"
   xmlns:inkscape="http://www.inkscape.org/namespaces/inkscape"
   width="35.4778in"
   height="19.2333in"
   viewBox="0 0 3193 1731"
   version="1.1"
   id="svg3"
   sodipodi:docname="logo.svg"
   inkscape:version="0.92.4 5da689c313, 2019-01-14">
  <metadata
     id="metadata9">
    <rdf:RDF>
      <cc:Work
         rdf:about="">
        <dc:format>image/svg+xml</dc:format>
        <dc:type
           rdf:resource="http://purl.org/dc/dcmitype/StillImage" />
        <dc:title />
      </cc:Work>
    </rdf:RDF>
  </metadata>
  <defs
     id="defs7">
    <filter
       inkscape:collect="always"
       style="color-interpolation-filters:sRGB"
       id="filter4607"
       x="-0.42232825"
       width="1.8446565"
       y="-0.77691368"
       height="2.5538274">
      <feGaussianBlur
         inkscape:collect="always"
         stdDeviation="290.77335"
         id="feGaussianBlur4609" />
    </filter>
  </defs>
  <sodipodi:namedview
     pagecolor="#ffffff"
     bordercolor="#666666"
     borderopacity="1"
     objecttolerance="10"
     gridtolerance="10"
     guidetolerance="10"
     inkscape:pageopacity="0"
     inkscape:pageshadow="2"
     inkscape:window-width="1920"
     inkscape:window-height="1176"
     id="namedview5"
     showgrid="false"
     inkscape:zoom="0.50266178"
     inkscape:cx="1788.1862"
     inkscape:cy="857.18146"
     inkscape:window-x="0"
     inkscape:window-y="0"
     inkscape:window-maximized="1"
     inkscape:current-layer="svg3" />
  <path
     id="Seleção"
     fill="none"
     stroke="black"
     stroke-width="1"
     d="M 1137.00,448.00            C 1137.00,448.00 1121.67,471.00 1121.67,471.00              1121.67,471.00 1080.69,532.00 1080.69,532.00              1080.69,532.00 1004.34,648.00 1004.34,648.00              1004.34,648.00 945.00,739.00 945.00,739.00              945.00,739.00 907.34,796.00 907.34,796.00              907.34,796.00 893.33,818.00 893.33,818.00              893.33,818.00 876.33,844.00 876.33,844.00              876.33,844.00 865.00,863.00 865.00,863.00              863.12,856.38 864.00,835.15 864.00,827.00              864.00,827.00 864.00,786.00 864.00,786.00              864.02,774.17 871.22,760.45 875.00,749.00              881.50,729.31 887.55,706.43 890.92,686.00              893.54,670.13 894.18,654.07 894.00,638.00              893.97,635.41 893.48,627.63 892.01,625.70              890.38,623.55 877.21,618.28 874.00,617.00              874.00,617.00 877.83,644.00 877.83,644.00              877.83,644.00 879.00,683.00 879.00,683.00              878.76,703.36 870.76,728.98 863.58,748.00              863.58,748.00 855.00,769.00 855.00,769.00              849.93,767.00 849.09,767.40 844.00,769.00              844.00,769.00 837.43,749.00 837.43,749.00              832.10,731.60 828.07,717.11 825.27,699.00              822.38,680.25 822.97,664.76 823.00,646.00              823.00,646.00 825.00,617.00 825.00,617.00              821.28,618.30 806.82,623.68 805.02,626.41              803.96,628.02 804.03,630.17 804.17,632.00              804.17,632.00 809.42,678.00 809.42,678.00              813.99,703.29 821.88,728.25 828.74,753.00              831.84,764.16 836.98,775.31 837.00,787.00              837.00,787.00 837.00,863.00 837.00,863.00              837.00,863.00 811.58,831.00 811.58,831.00              811.58,831.00 770.79,779.00 770.79,779.00              770.79,779.00 658.42,636.00 658.42,636.00              658.42,636.00 598.40,559.00 598.40,559.00              598.40,559.00 536.88,480.00 536.88,480.00              536.88,480.00 519.88,458.00 519.88,458.00              519.88,458.00 511.83,449.64 511.83,449.64              511.83,449.64 501.00,451.13 501.00,451.13              501.00,451.13 477.00,457.12 477.00,457.12              477.00,457.12 387.00,480.63 387.00,480.63              387.00,480.63 307.00,501.85 307.00,501.85              307.00,501.85 156.00,541.15 156.00,541.15              156.00,541.15 83.00,560.15 83.00,560.15              83.00,560.15 34.00,573.00 34.00,573.00              38.27,577.23 49.08,580.73 55.00,583.28              55.00,583.28 101.00,602.86 101.00,602.86              101.00,602.86 151.00,623.99 151.00,623.99              151.00,623.99 256.00,666.60 256.00,666.60              256.00,666.60 479.00,754.81 479.00,754.81              479.00,754.81 525.00,773.19 525.00,773.19              525.00,773.19 645.00,819.42 645.00,819.42              645.00,819.42 773.00,868.42 773.00,868.42              773.00,868.42 813.00,883.42 813.00,883.42              820.24,886.18 829.60,890.66 837.00,892.00              837.00,892.00 837.00,920.00 837.00,920.00              837.00,920.00 838.00,934.00 838.00,934.00              838.00,934.00 838.00,1025.00 838.00,1025.00              838.00,1025.00 838.96,1037.00 838.96,1037.00              838.96,1037.00 838.96,1049.00 838.96,1049.00              839.01,1053.74 839.90,1065.09 842.73,1068.77              845.43,1072.28 852.00,1073.32 855.01,1069.69              857.02,1067.26 859.23,1059.24 859.89,1056.00              859.89,1056.00 859.89,1045.00 859.89,1045.00              859.89,1045.00 861.00,1033.00 861.00,1033.00              861.00,1033.00 861.00,989.00 861.00,989.00              861.00,989.00 862.00,974.00 862.00,974.00              862.00,974.00 862.00,954.00 862.00,954.00              862.00,954.00 863.00,939.00 863.00,939.00              863.00,939.00 864.00,918.00 864.00,918.00              864.00,918.00 904.89,972.00 904.89,972.00              904.89,972.00 955.89,1039.00 955.89,1039.00              955.89,1039.00 1072.37,1192.00 1072.37,1192.00              1072.37,1192.00 1129.13,1267.00 1129.13,1267.00              1129.13,1267.00 1144.58,1287.00 1144.58,1287.00              1144.58,1287.00 1151.32,1294.34 1151.32,1294.34              1151.32,1294.34 1161.00,1292.66 1161.00,1292.66              1161.00,1292.66 1184.00,1285.33 1184.00,1285.33              1184.00,1285.33 1238.00,1268.96 1238.00,1268.96              1238.00,1268.96 1267.00,1259.72 1267.00,1259.72              1267.00,1259.72 1386.00,1223.02 1386.00,1223.02              1386.00,1223.02 1488.00,1191.98 1488.00,1191.98              1488.00,1191.98 1556.00,1170.98 1556.00,1170.98              1556.00,1170.98 1593.00,1160.00 1593.00,1160.00              1590.06,1156.08 1582.59,1154.31 1578.00,1152.58              1578.00,1152.58 1542.00,1139.58 1542.00,1139.58              1542.00,1139.58 1434.00,1099.44 1434.00,1099.44              1434.00,1099.44 1401.00,1087.58 1401.00,1087.58              1401.00,1087.58 1222.00,1021.95 1222.00,1021.95              1222.00,1021.95 1030.00,951.05 1030.00,951.05              1030.00,951.05 911.00,907.42 911.00,907.42              911.00,907.42 869.00,892.00 869.00,892.00              869.00,892.00 919.00,870.14 919.00,870.14              919.00,870.14 1033.00,820.14 1033.00,820.14              1033.00,820.14 1407.00,655.86 1407.00,655.86              1407.00,655.86 1480.00,624.14 1480.00,624.14              1480.00,624.14 1515.00,608.42 1515.00,608.42              1515.00,608.42 1570.00,584.30 1570.00,584.30              1570.00,584.30 1593.00,574.00 1593.00,574.00              1593.00,574.00 1576.00,568.29 1576.00,568.29              1576.00,568.29 1545.00,559.28 1545.00,559.28              1545.00,559.28 1503.00,547.58 1503.00,547.58              1503.00,547.58 1431.00,527.27 1431.00,527.27              1431.00,527.27 1354.00,505.42 1354.00,505.42              1354.00,505.42 1223.00,470.12 1223.00,470.12              1223.00,470.12 1158.00,453.12 1158.00,453.12              1158.00,453.12 1137.00,448.00 1137.00,448.00 Z            M 2303.00,478.14            C 2286.41,480.93 2273.14,483.55 2258.00,491.48              2219.26,511.79 2197.65,548.90 2190.59,591.00              2190.59,591.00 2188.00,614.00 2188.00,614.00              2188.00,614.00 2188.00,639.00 2188.00,639.00              2188.00,639.00 2188.92,651.00 2188.92,651.00              2192.13,691.11 2210.17,731.62 2244.00,754.98              2254.80,762.43 2260.72,765.48 2273.00,769.95              2281.96,773.20 2299.52,776.89 2309.00,777.00              2309.00,777.00 2332.00,777.00 2332.00,777.00              2357.15,776.96 2385.60,766.41 2405.00,750.54              2435.59,725.50 2450.99,688.72 2454.08,650.00              2454.08,650.00 2455.00,640.00 2455.00,640.00              2455.00,640.00 2455.00,617.00 2455.00,617.00              2455.00,617.00 2454.08,605.00 2454.08,605.00              2450.98,566.15 2436.05,530.98 2406.00,505.30              2386.94,489.01 2357.11,478.04 2332.00,478.14              2332.00,478.14 2311.00,478.14 2311.00,478.14              2311.00,478.14 2303.00,478.14 2303.00,478.14 Z            M 504.00,484.00            C 504.00,484.00 523.58,509.00 523.58,509.00              523.58,509.00 578.00,578.00 578.00,578.00              578.00,578.00 705.42,740.00 705.42,740.00              705.42,740.00 756.65,805.00 756.65,805.00              756.65,805.00 776.00,830.00 776.00,830.00              776.00,830.00 736.00,803.33 736.00,803.33              736.00,803.33 701.00,778.72 701.00,778.72              701.00,778.72 642.00,737.72 642.00,737.72              642.00,737.72 442.00,598.28 442.00,598.28              442.00,598.28 369.00,547.28 369.00,547.28              369.00,547.28 343.00,529.00 343.00,529.00              343.00,529.00 360.00,524.00 360.00,524.00              360.00,524.00 397.00,513.58 397.00,513.58              397.00,513.58 452.00,498.58 452.00,498.58              452.00,498.58 504.00,484.00 504.00,484.00 Z            M 1301.00,528.00            C 1301.00,528.00 1272.00,550.42 1272.00,550.42              1272.00,550.42 1225.00,585.65 1225.00,585.65              1225.00,585.65 1062.00,713.80 1062.00,713.80              1062.00,713.80 963.00,793.80 963.00,793.80              963.00,793.80 934.00,817.42 934.00,817.42              934.00,817.42 917.00,830.00 917.00,830.00              917.00,830.00 932.33,807.00 932.33,807.00              932.33,807.00 973.26,747.00 973.26,747.00              973.26,747.00 1051.74,631.00 1051.74,631.00              1051.74,631.00 1088.67,577.00 1088.67,577.00              1088.67,577.00 1122.81,527.00 1122.81,527.00              1122.81,527.00 1134.86,509.00 1134.86,509.00              1134.86,509.00 1146.65,492.00 1146.65,492.00              1146.65,492.00 1152.21,485.35 1152.21,485.35              1152.21,485.35 1164.00,487.66 1164.00,487.66              1164.00,487.66 1193.00,496.34 1193.00,496.34              1193.00,496.34 1259.00,515.72 1259.00,515.72              1259.00,515.72 1301.00,528.00 1301.00,528.00 Z            M 1897.00,483.00            C 1897.00,483.00 1897.00,771.00 1897.00,771.00              1897.00,771.00 1937.00,771.00 1937.00,771.00              1937.00,771.00 1937.00,634.00 1937.00,634.00              1937.00,634.00 2078.00,634.00 2078.00,634.00              2078.00,634.00 2078.00,771.00 2078.00,771.00              2078.00,771.00 2118.00,771.00 2118.00,771.00              2118.00,771.00 2118.00,483.00 2118.00,483.00              2118.00,483.00 2078.00,483.00 2078.00,483.00              2078.00,483.00 2078.00,601.00 2078.00,601.00              2078.00,601.00 1937.00,601.00 1937.00,601.00              1937.00,601.00 1937.00,483.00 1937.00,483.00              1937.00,483.00 1897.00,483.00 1897.00,483.00 Z            M 2525.00,483.00            C 2525.00,483.00 2525.00,771.00 2525.00,771.00              2525.00,771.00 2705.00,771.00 2705.00,771.00              2705.00,771.00 2705.00,738.00 2705.00,738.00              2705.00,738.00 2565.00,738.00 2565.00,738.00              2565.00,738.00 2565.00,483.00 2565.00,483.00              2565.00,483.00 2525.00,483.00 2525.00,483.00 Z            M 2716.00,483.00            C 2718.17,488.13 2723.41,495.11 2726.67,500.00              2726.67,500.00 2745.58,528.00 2745.58,528.00              2745.58,528.00 2791.33,596.00 2791.33,596.00              2791.33,596.00 2809.00,622.00 2809.00,622.00              2814.61,630.41 2817.98,632.62 2818.00,643.00              2818.00,643.00 2818.00,771.00 2818.00,771.00              2818.00,771.00 2858.00,771.00 2858.00,771.00              2858.00,771.00 2858.00,642.00 2858.00,642.00              2858.02,631.62 2861.39,629.41 2867.00,621.00              2867.00,621.00 2884.66,595.00 2884.66,595.00              2884.66,595.00 2933.02,523.00 2933.02,523.00              2938.53,515.01 2956.18,490.36 2959.00,483.00              2959.00,483.00 2924.00,483.00 2924.00,483.00              2924.00,483.00 2916.32,484.02 2916.32,484.02              2916.32,484.02 2909.33,493.00 2909.33,493.00              2909.33,493.00 2897.33,511.00 2897.33,511.00              2897.33,511.00 2860.67,566.00 2860.67,566.00              2860.67,566.00 2837.00,600.00 2837.00,600.00              2837.00,600.00 2815.02,566.00 2815.02,566.00              2815.02,566.00 2776.67,509.00 2776.67,509.00              2776.67,509.00 2765.33,492.00 2765.33,492.00              2765.33,492.00 2758.82,484.02 2758.82,484.02              2758.82,484.02 2751.00,483.00 2751.00,483.00              2751.00,483.00 2716.00,483.00 2716.00,483.00 Z            M 2309.00,511.14            C 2309.00,511.14 2328.00,511.14 2328.00,511.14              2336.45,511.01 2343.01,512.31 2351.00,515.00              2357.95,517.35 2363.89,520.26 2370.00,524.36              2399.34,544.04 2412.95,584.86 2413.00,619.00              2413.00,619.00 2413.00,636.00 2413.00,636.00              2412.95,665.55 2401.70,703.74 2379.00,723.71              2365.02,736.01 2346.75,743.97 2328.00,744.00              2328.00,744.00 2313.00,744.00 2313.00,744.00              2306.51,743.92 2298.16,742.08 2292.00,740.00              2262.46,730.03 2244.42,705.01 2236.00,676.00              2233.01,665.70 2230.13,649.66 2230.00,639.00              2230.00,639.00 2230.00,618.00 2230.00,618.00              2230.05,589.06 2240.95,553.60 2262.09,533.17              2268.94,526.54 2277.33,521.22 2286.00,517.31              2293.26,514.04 2301.18,512.48 2309.00,511.14 Z            M 734.00,828.00            C 729.82,829.04 724.90,825.99 721.00,824.40              721.00,824.40 691.00,811.42 691.00,811.42              691.00,811.42 573.00,761.28 573.00,761.28              573.00,761.28 478.00,721.58 478.00,721.58              478.00,721.58 320.00,655.42 320.00,655.42              320.00,655.42 281.00,639.58 281.00,639.58              281.00,639.58 184.00,599.58 184.00,599.58              184.00,599.58 149.00,584.99 149.00,584.99              143.06,582.54 137.28,579.47 131.00,578.00              131.00,578.00 168.00,567.58 168.00,567.58              168.00,567.58 257.00,543.58 257.00,543.58              257.00,543.58 291.00,534.15 291.00,534.15              291.00,534.15 306.00,531.14 306.00,531.14              306.00,531.14 319.00,539.34 319.00,539.34              319.00,539.34 347.00,558.86 347.00,558.86              347.00,558.86 434.00,619.58 434.00,619.58              434.00,619.58 527.00,684.02 527.00,684.02              527.00,684.02 629.00,755.02 629.00,755.02              629.00,755.02 696.00,801.72 696.00,801.72              696.00,801.72 734.00,828.00 734.00,828.00 Z            M 1506.00,577.00            C 1506.00,577.00 1488.00,586.25 1488.00,586.25              1488.00,586.25 1444.00,606.31 1444.00,606.31              1444.00,606.31 1322.00,662.31 1322.00,662.31              1322.00,662.31 1171.00,731.31 1171.00,731.31              1171.00,731.31 1067.00,778.86 1067.00,778.86              1067.00,778.86 1042.00,790.69 1042.00,790.69              1042.00,790.69 991.00,813.86 991.00,813.86              991.00,813.86 956.00,829.00 956.00,829.00              956.00,829.00 970.00,818.12 970.00,818.12              970.00,818.12 995.00,799.58 995.00,799.58              995.00,799.58 1051.00,757.12 1051.00,757.12              1051.00,757.12 1243.00,609.12 1243.00,609.12              1243.00,609.12 1317.00,551.63 1317.00,551.63              1317.00,551.63 1336.00,536.65 1336.00,536.65              1336.00,536.65 1345.00,531.10 1345.00,531.10              1345.00,531.10 1360.00,534.72 1360.00,534.72              1360.00,534.72 1392.00,544.28 1392.00,544.28              1392.00,544.28 1463.00,564.72 1463.00,564.72              1463.00,564.72 1506.00,577.00 1506.00,577.00 Z            M 735.00,829.00            C 735.00,829.00 735.00,830.00 735.00,830.00              735.00,830.00 734.00,829.00 734.00,829.00              734.00,829.00 735.00,829.00 735.00,829.00 Z            M 956.00,829.00            C 956.00,829.00 956.00,830.00 956.00,830.00              956.00,830.00 955.00,829.00 955.00,829.00              955.00,829.00 956.00,829.00 956.00,829.00 Z            M 737.00,830.00            C 737.00,830.00 737.00,831.00 737.00,831.00              737.00,831.00 736.00,830.00 736.00,830.00              736.00,830.00 737.00,830.00 737.00,830.00 Z            M 954.00,830.00            C 954.00,830.00 954.00,831.00 954.00,831.00              954.00,831.00 953.00,830.00 953.00,830.00              953.00,830.00 954.00,830.00 954.00,830.00 Z            M 2404.00,939.00            C 2404.00,939.00 2404.00,1142.00 2404.00,1142.00              2404.01,1150.46 2405.73,1158.83 2407.88,1167.00              2417.28,1202.63 2446.48,1226.74 2482.00,1233.80              2487.10,1234.82 2493.85,1235.94 2499.00,1236.00              2499.00,1236.00 2519.00,1236.00 2519.00,1236.00              2548.14,1235.95 2578.26,1221.94 2596.33,1199.00              2619.47,1169.62 2616.00,1138.72 2616.00,1104.00              2616.00,1104.00 2616.00,939.00 2616.00,939.00              2616.00,939.00 2576.00,939.00 2576.00,939.00              2576.00,939.00 2576.00,1088.00 2576.00,1088.00              2576.00,1088.00 2576.00,1118.00 2576.00,1118.00              2576.00,1118.00 2574.96,1129.00 2574.96,1129.00              2574.96,1129.00 2574.96,1138.00 2574.96,1138.00              2573.90,1147.58 2570.45,1158.66 2565.66,1167.00              2552.79,1189.46 2531.48,1196.74 2507.00,1196.08              2489.80,1195.62 2475.57,1191.50 2463.04,1178.96              2452.36,1168.28 2446.61,1152.87 2445.04,1138.00              2445.04,1138.00 2445.04,1130.00 2445.04,1130.00              2445.04,1130.00 2444.00,1118.00 2444.00,1118.00              2444.00,1118.00 2444.00,939.00 2444.00,939.00              2444.00,939.00 2404.00,939.00 2404.00,939.00 Z            M 1897.00,944.00            C 1897.00,944.00 1897.00,1232.00 1897.00,1232.00              1897.00,1232.00 1986.00,1232.00 1986.00,1232.00              2019.76,1232.00 2048.67,1233.22 2077.00,1210.99              2091.94,1199.26 2101.77,1179.05 2102.00,1160.00              2102.00,1160.00 2102.00,1144.00 2102.00,1144.00              2101.88,1119.39 2086.78,1095.81 2065.00,1084.76              2058.68,1081.55 2052.12,1078.64 2045.00,1078.00              2058.62,1071.38 2067.56,1071.94 2078.32,1058.00              2087.08,1046.65 2089.20,1034.80 2090.29,1021.00              2090.29,1021.00 2090.29,1014.00 2090.29,1014.00              2088.73,986.27 2080.21,967.34 2054.00,954.27              2031.38,942.99 2008.33,944.00 1984.00,944.00              1984.00,944.00 1897.00,944.00 1897.00,944.00 Z            M 2178.00,944.00            C 2178.00,944.00 2178.00,1232.00 2178.00,1232.00              2178.00,1232.00 2358.00,1232.00 2358.00,1232.00              2358.00,1232.00 2358.00,1199.00 2358.00,1199.00              2358.00,1199.00 2218.00,1199.00 2218.00,1199.00              2218.00,1199.00 2218.00,944.00 2218.00,944.00              2218.00,944.00 2178.00,944.00 2178.00,944.00 Z            M 2697.00,944.00            C 2697.00,944.00 2697.00,1232.00 2697.00,1232.00              2697.00,1232.00 2884.00,1232.00 2884.00,1232.00              2884.00,1232.00 2884.00,1199.00 2884.00,1199.00              2884.00,1199.00 2737.00,1199.00 2737.00,1199.00              2737.00,1199.00 2737.00,1095.00 2737.00,1095.00              2737.00,1095.00 2874.00,1095.00 2874.00,1095.00              2874.00,1095.00 2874.00,1062.00 2874.00,1062.00              2874.00,1062.00 2737.00,1062.00 2737.00,1062.00              2737.00,1062.00 2737.00,977.00 2737.00,977.00              2737.00,977.00 2880.00,977.00 2880.00,977.00              2880.00,977.00 2880.00,944.00 2880.00,944.00              2880.00,944.00 2697.00,944.00 2697.00,944.00 Z            M 949.00,948.00            C 949.00,948.00 949.00,949.00 949.00,949.00              949.00,949.00 948.00,948.00 948.00,948.00              948.00,948.00 949.00,948.00 949.00,948.00 Z            M 920.00,949.00            C 920.00,949.00 920.00,950.00 920.00,950.00              920.00,950.00 919.00,949.00 919.00,949.00              919.00,949.00 920.00,949.00 920.00,949.00 Z            M 950.00,949.00            C 950.00,949.00 1009.00,971.80 1009.00,971.80              1009.00,971.80 1114.00,1012.80 1114.00,1012.80              1114.00,1012.80 1338.00,1100.20 1338.00,1100.20              1338.00,1100.20 1388.00,1120.19 1388.00,1120.19              1388.00,1120.19 1417.00,1131.20 1417.00,1131.20              1417.00,1131.20 1483.00,1157.00 1483.00,1157.00              1478.64,1159.67 1468.42,1161.87 1463.00,1163.42              1463.00,1163.42 1424.00,1173.88 1424.00,1173.88              1424.00,1173.88 1359.00,1191.88 1359.00,1191.88              1359.00,1191.88 1332.00,1198.68 1332.00,1198.68              1326.89,1199.22 1324.04,1196.68 1320.00,1194.00              1320.00,1194.00 1303.00,1182.67 1303.00,1182.67              1303.00,1182.67 1229.00,1134.00 1229.00,1134.00              1229.00,1134.00 1057.00,1021.00 1057.00,1021.00              1057.00,1021.00 983.00,972.31 983.00,972.31              983.00,972.31 949.00,950.00 949.00,950.00              949.00,950.00 950.00,949.00 950.00,949.00 Z            M 921.00,950.00            C 921.00,950.00 954.00,972.33 954.00,972.33              954.00,972.33 1029.00,1022.00 1029.00,1022.00              1029.00,1022.00 1190.00,1127.33 1190.00,1127.33              1190.00,1127.33 1266.00,1177.67 1266.00,1177.67              1266.00,1177.67 1307.00,1205.00 1307.00,1205.00              1302.76,1208.02 1297.96,1208.58 1293.00,1209.88              1293.00,1209.88 1273.00,1215.37 1273.00,1215.37              1273.00,1215.37 1204.00,1233.63 1204.00,1233.63              1204.00,1233.63 1181.00,1239.87 1181.00,1239.87              1178.12,1240.60 1173.83,1242.13 1171.04,1240.89              1168.18,1239.61 1159.03,1228.09 1156.42,1225.00              1156.42,1225.00 1124.25,1187.00 1124.25,1187.00              1124.25,1187.00 1062.28,1115.00 1062.28,1115.00              1062.28,1115.00 1013.84,1059.00 1013.84,1059.00              1013.84,1059.00 944.93,980.00 944.93,980.00              944.93,980.00 927.42,960.00 927.42,960.00              924.92,957.07 921.05,953.98 921.00,950.00 Z            M 1937.00,1063.00            C 1937.00,1063.00 1937.00,976.00 1937.00,976.00              1937.00,976.00 1987.00,976.00 1987.00,976.00              1987.00,976.00 1999.00,976.91 1999.00,976.91              2010.38,977.69 2020.55,977.72 2031.00,983.51              2042.98,990.15 2049.84,1001.31 2050.00,1015.00              2050.19,1031.42 2048.65,1045.06 2033.00,1054.52              2022.73,1060.74 2011.52,1061.30 2000.00,1062.09              2000.00,1062.09 1988.00,1063.00 1988.00,1063.00              1988.00,1063.00 1937.00,1063.00 1937.00,1063.00 Z            M 1937.00,1200.00            C 1937.00,1200.00 1937.00,1095.00 1937.00,1095.00              1937.00,1095.00 1995.00,1095.00 1995.00,1095.00              1995.00,1095.00 2005.00,1095.91 2005.00,1095.91              2017.50,1096.77 2027.54,1097.16 2039.00,1103.51              2052.63,1111.07 2059.82,1125.71 2060.00,1141.00              2060.00,1141.00 2060.00,1154.00 2060.00,1154.00              2059.83,1167.75 2052.97,1182.78 2041.00,1190.07              2029.02,1197.37 2019.47,1198.16 2006.00,1199.09              2006.00,1199.09 1995.00,1200.00 1995.00,1200.00              1995.00,1200.00 1937.00,1200.00 1937.00,1200.00 Z" />
  <path
     style="fill:#3d6b99;stroke-width:1.98940921;fill-opacity:0"
     d="m 1218.514,1367.0993 c -5.3847,-6.8362 -31.1638,-40.6294 -57.2869,-75.0959 -26.1231,-34.4666 -88.7118,-116.8386 -139.0859,-183.0491 -50.37411,-66.2105 -93.53061,-123.05627 -95.90333,-126.32389 -2.37271,-3.26763 -4.86598,-5.38919 -5.54059,-4.71458 -0.67459,0.6746 -2.03612,34.69187 -3.02559,75.59387 -1.77949,73.5578 -3.02967,85.7257 -9.04509,88.034 -1.51133,0.58 -4.80448,-0.6108 -7.3181,-2.6462 l -4.57021,-3.7008 -1.27615,-91.8036 c -0.7019,-50.49207 -1.59857,-92.03545 -1.99259,-92.31868 -0.39404,-0.28322 -12.80209,-5.1284 -27.57345,-10.76704 C 654.62155,859.65792 573.09582,828.08806 433.19958,772.75083 161.1853,665.15314 37.379599,613.81715 43.584748,611.19719 45.60294,610.34506 121.11101,590.40237 211.38045,566.8801 c 90.26945,-23.52227 198.14516,-51.71074 239.72382,-62.64103 94.4146,-24.81993 93.19688,-24.58244 98.20659,-19.15271 2.12642,2.3047 37.31002,47.1616 78.18579,99.68201 85.26793,109.55894 251.22507,320.89925 260.10695,331.23664 l 5.98253,6.96293 0.0808,-45.61653 0.0808,-45.61656 -11.83372,-41.91745 c -14.52888,-51.46429 -15.58537,-56.13482 -19.14007,-84.61415 -4.46817,-35.79761 -4.3352,-36.84658 5.15173,-40.6425 4.39901,-1.76007 8.24601,-3.20012 8.54907,-3.20012 0.30307,0 0.56165,17.68087 0.57462,39.29083 0.0261,43.44331 2.47258,59.54306 15.15916,99.75843 l 6.52365,20.67941 7.38382,0.20939 7.38379,0.20938 6.82556,-17.90468 c 17.50676,-45.92339 20.29671,-63.14208 17.35143,-107.08771 -1.16076,-17.3196 -2.6794,-32.41068 -3.37473,-33.53575 -1.60478,-2.59658 6.47497,-0.29488 12.66255,3.60723 4.20101,2.6493 4.47617,4.17238 4.47617,24.77674 0,35.3 -6.14626,66.39892 -23.02389,116.4967 l -8.80666,26.14074 0.0304,41.49918 c 0.0159,22.82455 0.75591,42.64235 1.64259,44.03955 1.0823,1.70546 10.13835,-10.71701 27.55551,-37.79877 95.08579,-147.84795 263.08319,-401.42172 265.93419,-401.39877 9.9272,0.0799 317.5011,84.02153 449.5162,122.67983 l 31.4758,9.21713 -40.4281,17.83861 c -22.2355,9.81123 -88.7708,39.04569 -147.8562,64.96545 -425.3365,186.58777 -581.89765,255.63742 -581.86763,256.6265 0.0199,0.62646 18.14751,7.7273 40.28554,15.77961 22.13803,8.05232 125.29819,45.96244 229.24479,84.24474 103.9467,38.2823 222.1176,81.6894 262.6021,96.4603 40.4844,14.7709 104.9413,38.4357 143.2374,52.5886 38.2961,14.1528 74.7769,27.6043 81.0684,29.8923 6.2916,2.288 11.4392,4.8044 11.4392,5.592 0,0.7875 -3.8048,2.5278 -8.455,3.8673 -13.8369,3.9855 -164.9054,50.1988 -262.1047,80.1804 -149.387,46.079 -183.7626,56.6028 -189.3233,57.9597 -4.7231,1.1524 -6.3736,-0.065 -15.0934,-11.1357 z m 96.9886,-57.9715 c 34.4665,-9.1767 66.4711,-17.7136 71.1214,-18.9708 4.6502,-1.2572 8.455,-3.1897 8.455,-4.2944 0,-1.9991 -86.4211,-59.6753 -224.8033,-150.0305 -39.9374,-26.0767 -97.9756,-64.3279 -128.9738,-85.0028 -57.71114,-38.4915 -62.00947,-41.1182 -62.00947,-37.8937 0,1.0255 28.42367,34.4936 63.16377,74.3734 62.1248,71.3162 133.7792,154.3711 181.3168,210.1652 13.2847,15.592 25.2586,28.3468 26.6086,28.3439 1.35,0 30.6545,-7.5135 65.121,-16.6903 z m 131.301,-35.7237 c 78.4074,-20.9685 131.806,-36.0402 134.3918,-37.932 2.3002,-1.6827 -11.8062,-7.905 -64.2301,-28.3316 -36.9477,-14.3964 -147.7487,-57.6822 -246.2244,-96.1907 -212.1779,-82.9711 -260.1921,-101.5315 -260.8786,-100.845 -0.2818,0.2818 0.1104,1.5131 0.8715,2.7361 1.0947,1.7592 375.976,249.2014 399.2657,263.5374 7.7792,4.7885 7.7766,4.7887 36.8041,-2.9742 z M 788.24663,886.66122 c -0.0785,-1.87342 16.62736,9.90681 -163.06905,-114.98908 C 540.37901,712.73388 439.21755,642.33853 400.37433,615.23804 353.09706,582.2532 328.05125,565.94865 324.61066,565.9167 c -2.82679,-0.0262 -18.04577,3.46837 -33.81995,7.76582 -15.77417,4.29745 -55.50846,15.10487 -88.29843,24.01648 -32.78996,8.91162 -60.79842,16.86347 -62.24103,17.6708 -1.5871,0.88819 34.13378,16.63165 90.45396,39.86626 173.64635,71.63697 544.20924,226.81208 551.6357,231.00033 3.82476,2.15699 5.9848,2.31239 5.90572,0.42483 z m 279.57447,-21.97704 c 19.6952,-8.77672 44.7617,-20.16222 55.7035,-25.30113 10.9417,-5.1389 71.3701,-32.86645 134.2851,-61.6168 307.8323,-140.67033 350.1361,-160.25412 350.1361,-162.08938 0,-1.41345 -166.9847,-49.80789 -171.8618,-49.80789 -4.65,0 -6.6252,1.4285 -68.8568,49.79947 -93.4481,72.63473 -270.3956,208.59714 -311.6574,239.47035 -22.0566,16.5034 -39.7355,30.60085 -39.2863,31.32764 0.4492,0.72679 4.1718,-0.28643 8.2725,-2.25159 4.1007,-1.96514 23.57,-10.75395 43.2651,-19.53067 z M 828.09732,884.8596 c 0,-1.88316 0.59285,-1.12133 -132.12385,-169.78492 C 577.43951,564.43526 538.97996,515.45225 538.75131,514.83281 c -0.0622,-0.16844 -33.68432,9.01107 -74.71588,20.39889 -41.03157,11.38783 -80.19806,22.23185 -87.03666,24.09783 -6.83859,1.86599 -12.4338,3.97743 -12.4338,4.69211 0,1.36206 11.78945,9.6518 255.63909,179.75227 206.06364,143.74238 207.89326,144.98403 207.89326,141.08569 z m 158.96496,-4.08908 c 3.93289,-2.96632 39.37912,-31.44514 78.76942,-63.28623 83.1829,-67.24078 221.0986,-175.76818 278.7872,-219.38088 22.032,-16.65619 41.1184,-31.56149 42.4143,-33.1229 1.9652,-2.36794 0.1052,-3.49637 -11.2117,-6.8018 -7.4623,-2.17958 -40.8724,-11.98457 -74.2448,-21.78887 -33.3723,-9.80429 -63.5155,-18.42831 -66.9849,-19.16448 -5.8765,-1.24696 -6.8432,-0.6158 -14.1354,9.22935 -14.0553,18.97603 -241.64075,354.28725 -242.82181,357.75954 -1.12646,3.31177 1.97115,2.18029 9.42769,-3.44373 z"
     id="path4525"
     inkscape:connector-curvature="0"
     transform="matrix(0.93750166,0,0,0.93750166,-0.0037595,0)" />
  <path
     style="fill:#3d6b99;fill-opacity:0;stroke-width:1.98940921"
     d="m 1218.514,1367.0993 c -5.3847,-6.8362 -31.1638,-40.6294 -57.2869,-75.0959 -26.1231,-34.4666 -88.7118,-116.8386 -139.0859,-183.0491 -50.37411,-66.2105 -93.53061,-123.05627 -95.90333,-126.32389 -2.37271,-3.26763 -4.86598,-5.38919 -5.54059,-4.71458 -0.67459,0.6746 -2.03612,34.69187 -3.02559,75.59387 -1.77949,73.5578 -3.02967,85.7257 -9.04509,88.034 -1.51133,0.58 -4.80448,-0.6108 -7.3181,-2.6462 l -4.57021,-3.7008 -1.27615,-91.8036 c -0.7019,-50.49207 -1.59857,-92.03545 -1.99259,-92.31868 -0.39404,-0.28322 -12.80209,-5.1284 -27.57345,-10.76704 C 654.62155,859.65792 573.09582,828.08806 433.19958,772.75083 161.1853,665.15314 37.379599,613.81715 43.584748,611.19719 45.60294,610.34506 121.11101,590.40237 211.38045,566.8801 c 90.26945,-23.52227 198.14516,-51.71074 239.72382,-62.64103 94.4146,-24.81993 93.19688,-24.58244 98.20659,-19.15271 2.12642,2.3047 37.31002,47.1616 78.18579,99.68201 85.26793,109.55894 251.22507,320.89925 260.10695,331.23664 l 5.98253,6.96293 0.0808,-45.61653 0.0808,-45.61656 -11.83372,-41.91745 c -14.52888,-51.46429 -15.58537,-56.13482 -19.14007,-84.61415 -4.46817,-35.79761 -4.3352,-36.84658 5.15173,-40.6425 4.39901,-1.76007 8.24601,-3.20012 8.54907,-3.20012 0.30307,0 0.56165,17.68087 0.57462,39.29083 0.0261,43.44331 2.47258,59.54306 15.15916,99.75843 l 6.52365,20.67941 7.38382,0.20939 7.38379,0.20938 6.82556,-17.90468 c 17.50676,-45.92339 20.29671,-63.14208 17.35143,-107.08771 -1.16076,-17.3196 -2.6794,-32.41068 -3.37473,-33.53575 -1.60478,-2.59658 6.47497,-0.29488 12.66255,3.60723 4.20101,2.6493 4.47617,4.17238 4.47617,24.77674 0,35.3 -6.14626,66.39892 -23.02389,116.4967 l -8.80666,26.14074 0.0304,41.49918 c 0.0159,22.82455 0.75591,42.64235 1.64259,44.03955 1.0823,1.70546 10.13835,-10.71701 27.55551,-37.79877 95.08579,-147.84795 263.08319,-401.42172 265.93419,-401.39877 9.9272,0.0799 317.5011,84.02153 449.5162,122.67983 l 31.4758,9.21713 -40.4281,17.83861 c -22.2355,9.81123 -88.7708,39.04569 -147.8562,64.96545 -425.3365,186.58777 -581.89765,255.63742 -581.86763,256.6265 0.0199,0.62646 18.14751,7.7273 40.28554,15.77961 22.13803,8.05232 125.29819,45.96244 229.24479,84.24474 103.9467,38.2823 222.1176,81.6894 262.6021,96.4603 40.4844,14.7709 104.9413,38.4357 143.2374,52.5886 38.2961,14.1528 74.7769,27.6043 81.0684,29.8923 6.2916,2.288 11.4392,4.8044 11.4392,5.592 0,0.7875 -3.8048,2.5278 -8.455,3.8673 -13.8369,3.9855 -164.9054,50.1988 -262.1047,80.1804 -149.387,46.079 -183.7626,56.6028 -189.3233,57.9597 -4.7231,1.1524 -6.3736,-0.065 -15.0934,-11.1357 z m 96.9886,-57.9715 c 34.4665,-9.1767 66.4711,-17.7136 71.1214,-18.9708 4.6502,-1.2572 8.455,-3.1897 8.455,-4.2944 0,-1.9991 -86.4211,-59.6753 -224.8033,-150.0305 -39.9374,-26.0767 -97.9756,-64.3279 -128.9738,-85.0028 -57.71114,-38.4915 -62.00947,-41.1182 -62.00947,-37.8937 0,1.0255 28.42367,34.4936 63.16377,74.3734 62.1248,71.3162 133.7792,154.3711 181.3168,210.1652 13.2847,15.592 25.2586,28.3468 26.6086,28.3439 1.35,0 30.6545,-7.5135 65.121,-16.6903 z m 131.301,-35.7237 c 78.4074,-20.9685 131.806,-36.0402 134.3918,-37.932 2.3002,-1.6827 -11.8062,-7.905 -64.2301,-28.3316 -36.9477,-14.3964 -147.7487,-57.6822 -246.2244,-96.1907 -212.1779,-82.9711 -260.1921,-101.5315 -260.8786,-100.845 -0.2818,0.2818 0.1104,1.5131 0.8715,2.7361 1.0947,1.7592 375.976,249.2014 399.2657,263.5374 7.7792,4.7885 7.7766,4.7887 36.8041,-2.9742 z M 788.24663,886.66122 c -0.0785,-1.87342 16.62736,9.90681 -163.06905,-114.98908 C 540.37901,712.73388 439.21755,642.33853 400.37433,615.23804 353.09706,582.2532 328.05125,565.94865 324.61066,565.9167 c -2.82679,-0.0262 -18.04577,3.46837 -33.81995,7.76582 -15.77417,4.29745 -55.50846,15.10487 -88.29843,24.01648 -32.78996,8.91162 -60.79842,16.86347 -62.24103,17.6708 -1.5871,0.88819 34.13378,16.63165 90.45396,39.86626 173.64635,71.63697 544.20924,226.81208 551.6357,231.00033 3.82476,2.15699 5.9848,2.31239 5.90572,0.42483 z m 279.57447,-21.97704 c 19.6952,-8.77672 44.7617,-20.16222 55.7035,-25.30113 10.9417,-5.1389 71.3701,-32.86645 134.2851,-61.6168 307.8323,-140.67033 350.1361,-160.25412 350.1361,-162.08938 0,-1.41345 -166.9847,-49.80789 -171.8618,-49.80789 -4.65,0 -6.6252,1.4285 -68.8568,49.79947 -93.4481,72.63473 -270.3956,208.59714 -311.6574,239.47035 -22.0566,16.5034 -39.7355,30.60085 -39.2863,31.32764 0.4492,0.72679 4.1718,-0.28643 8.2725,-2.25159 4.1007,-1.96514 23.57,-10.75395 43.2651,-19.53067 z M 828.09732,884.8596 c 0,-1.88316 0.59285,-1.12133 -132.12385,-169.78492 C 577.43951,564.43526 538.97996,515.45225 538.75131,514.83281 c -0.0622,-0.16844 -33.68432,9.01107 -74.71588,20.39889 -41.03157,11.38783 -80.19806,22.23185 -87.03666,24.09783 -6.83859,1.86599 -12.4338,3.97743 -12.4338,4.69211 0,1.36206 11.78945,9.6518 255.63909,179.75227 206.06364,143.74238 207.89326,144.98403 207.89326,141.08569 z m 158.96496,-4.08908 c 3.93289,-2.96632 39.37912,-31.44514 78.76942,-63.28623 83.1829,-67.24078 221.0986,-175.76818 278.7872,-219.38088 22.032,-16.65619 41.1184,-31.56149 42.4143,-33.1229 1.9652,-2.36794 0.1052,-3.49637 -11.2117,-6.8018 -7.4623,-2.17958 -40.8724,-11.98457 -74.2448,-21.78887 -33.3723,-9.80429 -63.5155,-18.42831 -66.9849,-19.16448 -5.8765,-1.24696 -6.8432,-0.6158 -14.1354,9.22935 -14.0553,18.97603 -241.64075,354.28725 -242.82181,357.75954 -1.12646,3.31177 1.97115,2.18029 9.42769,-3.44373 z"
     id="path4527"
     inkscape:connector-curvature="0"
     transform="matrix(0.93750166,0,0,0.93750166,-0.0037595,0)" />
  <path
     style="fill:#3d6b99;fill-opacity:0;stroke-width:1.98940921"
     d="m 1218.514,1367.0993 c -5.3847,-6.8362 -31.1638,-40.6294 -57.2869,-75.0959 -26.1231,-34.4666 -88.7118,-116.8386 -139.0859,-183.0491 -50.37411,-66.2105 -93.53061,-123.05627 -95.90333,-126.32389 -2.37271,-3.26763 -4.86598,-5.38919 -5.54059,-4.71458 -0.67459,0.6746 -2.03612,34.69187 -3.02559,75.59387 -1.77949,73.5578 -3.02967,85.7257 -9.04509,88.034 -1.51133,0.58 -4.80448,-0.6108 -7.3181,-2.6462 l -4.57021,-3.7008 -1.27615,-91.8036 c -0.7019,-50.49207 -1.59857,-92.03545 -1.99259,-92.31868 -0.39404,-0.28322 -12.80209,-5.1284 -27.57345,-10.76704 C 654.62155,859.65792 573.09582,828.08806 433.19958,772.75083 161.1853,665.15314 37.379599,613.81715 43.584748,611.19719 45.60294,610.34506 121.11101,590.40237 211.38045,566.8801 c 90.26945,-23.52227 198.14516,-51.71074 239.72382,-62.64103 94.4146,-24.81993 93.19688,-24.58244 98.20659,-19.15271 2.12642,2.3047 37.31002,47.1616 78.18579,99.68201 85.26793,109.55894 251.22507,320.89925 260.10695,331.23664 l 5.98253,6.96293 0.0808,-45.61653 0.0808,-45.61656 -11.83372,-41.91745 c -14.52888,-51.46429 -15.58537,-56.13482 -19.14007,-84.61415 -4.46817,-35.79761 -4.3352,-36.84658 5.15173,-40.6425 4.39901,-1.76007 8.24601,-3.20012 8.54907,-3.20012 0.30307,0 0.56165,17.68087 0.57462,39.29083 0.0261,43.44331 2.47258,59.54306 15.15916,99.75843 l 6.52365,20.67941 7.38382,0.20939 7.38379,0.20938 6.82556,-17.90468 c 17.50676,-45.92339 20.29671,-63.14208 17.35143,-107.08771 -1.16076,-17.3196 -2.6794,-32.41068 -3.37473,-33.53575 -1.60478,-2.59658 6.47497,-0.29488 12.66255,3.60723 4.20101,2.6493 4.47617,4.17238 4.47617,24.77674 0,35.3 -6.14626,66.39892 -23.02389,116.4967 l -8.80666,26.14074 0.0304,41.49918 c 0.0159,22.82455 0.75591,42.64235 1.64259,44.03955 1.0823,1.70546 10.13835,-10.71701 27.55551,-37.79877 95.08579,-147.84795 263.08319,-401.42172 265.93419,-401.39877 9.9272,0.0799 317.5011,84.02153 449.5162,122.67983 l 31.4758,9.21713 -40.4281,17.83861 c -22.2355,9.81123 -88.7708,39.04569 -147.8562,64.96545 -425.3365,186.58777 -581.89765,255.63742 -581.86763,256.6265 0.0199,0.62646 18.14751,7.7273 40.28554,15.77961 22.13803,8.05232 125.29819,45.96244 229.24479,84.24474 103.9467,38.2823 222.1176,81.6894 262.6021,96.4603 40.4844,14.7709 104.9413,38.4357 143.2374,52.5886 38.2961,14.1528 74.7769,27.6043 81.0684,29.8923 6.2916,2.288 11.4392,4.8044 11.4392,5.592 0,0.7875 -3.8048,2.5278 -8.455,3.8673 -13.8369,3.9855 -164.9054,50.1988 -262.1047,80.1804 -149.387,46.079 -183.7626,56.6028 -189.3233,57.9597 -4.7231,1.1524 -6.3736,-0.065 -15.0934,-11.1357 z m 96.9886,-57.9715 c 34.4665,-9.1767 66.4711,-17.7136 71.1214,-18.9708 4.6502,-1.2572 8.455,-3.1897 8.455,-4.2944 0,-1.9991 -86.4211,-59.6753 -224.8033,-150.0305 -39.9374,-26.0767 -97.9756,-64.3279 -128.9738,-85.0028 -57.71114,-38.4915 -62.00947,-41.1182 -62.00947,-37.8937 0,1.0255 28.42367,34.4936 63.16377,74.3734 62.1248,71.3162 133.7792,154.3711 181.3168,210.1652 13.2847,15.592 25.2586,28.3468 26.6086,28.3439 1.35,0 30.6545,-7.5135 65.121,-16.6903 z m 131.301,-35.7237 c 78.4074,-20.9685 131.806,-36.0402 134.3918,-37.932 2.3002,-1.6827 -11.8062,-7.905 -64.2301,-28.3316 -36.9477,-14.3964 -147.7487,-57.6822 -246.2244,-96.1907 -212.1779,-82.9711 -260.1921,-101.5315 -260.8786,-100.845 -0.2818,0.2818 0.1104,1.5131 0.8715,2.7361 1.0947,1.7592 375.976,249.2014 399.2657,263.5374 7.7792,4.7885 7.7766,4.7887 36.8041,-2.9742 z M 788.24663,886.66122 c -0.0785,-1.87342 16.62736,9.90681 -163.06905,-114.98908 C 540.37901,712.73388 439.21755,642.33853 400.37433,615.23804 353.09706,582.2532 328.05125,565.94865 324.61066,565.9167 c -2.82679,-0.0262 -18.04577,3.46837 -33.81995,7.76582 -15.77417,4.29745 -55.50846,15.10487 -88.29843,24.01648 -32.78996,8.91162 -60.79842,16.86347 -62.24103,17.6708 -1.5871,0.88819 34.13378,16.63165 90.45396,39.86626 173.64635,71.63697 544.20924,226.81208 551.6357,231.00033 3.82476,2.15699 5.9848,2.31239 5.90572,0.42483 z m 279.57447,-21.97704 c 19.6952,-8.77672 44.7617,-20.16222 55.7035,-25.30113 10.9417,-5.1389 71.3701,-32.86645 134.2851,-61.6168 307.8323,-140.67033 350.1361,-160.25412 350.1361,-162.08938 0,-1.41345 -166.9847,-49.80789 -171.8618,-49.80789 -4.65,0 -6.6252,1.4285 -68.8568,49.79947 -93.4481,72.63473 -270.3956,208.59714 -311.6574,239.47035 -22.0566,16.5034 -39.7355,30.60085 -39.2863,31.32764 0.4492,0.72679 4.1718,-0.28643 8.2725,-2.25159 4.1007,-1.96514 23.57,-10.75395 43.2651,-19.53067 z M 828.09732,884.8596 c 0,-1.88316 0.59285,-1.12133 -132.12385,-169.78492 C 577.43951,564.43526 538.97996,515.45225 538.75131,514.83281 c -0.0622,-0.16844 -33.68432,9.01107 -74.71588,20.39889 -41.03157,11.38783 -80.19806,22.23185 -87.03666,24.09783 -6.83859,1.86599 -12.4338,3.97743 -12.4338,4.69211 0,1.36206 11.78945,9.6518 255.63909,179.75227 206.06364,143.74238 207.89326,144.98403 207.89326,141.08569 z m 158.96496,-4.08908 c 3.93289,-2.96632 39.37912,-31.44514 78.76942,-63.28623 83.1829,-67.24078 221.0986,-175.76818 278.7872,-219.38088 22.032,-16.65619 41.1184,-31.56149 42.4143,-33.1229 1.9652,-2.36794 0.1052,-3.49637 -11.2117,-6.8018 -7.4623,-2.17958 -40.8724,-11.98457 -74.2448,-21.78887 -33.3723,-9.80429 -63.5155,-18.42831 -66.9849,-19.16448 -5.8765,-1.24696 -6.8432,-0.6158 -14.1354,9.22935 -14.0553,18.97603 -241.64075,354.28725 -242.82181,357.75954 -1.12646,3.31177 1.97115,2.18029 9.42769,-3.44373 z"
     id="path4529"
     inkscape:connector-curvature="0"
     transform="matrix(0.93750166,0,0,0.93750166,-0.0037595,0)" />
  <path
     style="fill:#3d6b99;fill-opacity:0;stroke-width:1.98940921"
     d="m 2655.175,1316.0073 c -42.4478,-6.7476 -72.3492,-31.8295 -85.5365,-71.7498 -3.2886,-9.9549 -3.678,-21.3029 -4.3181,-125.8301 l -0.7035,-114.8884 h 20.0114 20.0115 l 0.071,92.0102 c 0.078,100.495 1.3696,124.1184 7.7075,140.9086 8.3636,22.1569 25.8831,35.7282 51.1911,39.6549 38.7128,6.0065 69.3638,-11.2608 80.6088,-45.4109 4.2475,-12.8994 4.4043,-16.5319 5.1903,-120.232 l 0.8104,-106.9308 h 19.8483 19.8482 l -0.806,114.8884 c -0.5657,80.6243 -1.5156,117.4903 -3.185,123.6126 -9.226,33.8359 -37.8973,61.8254 -72.821,71.0893 -12.6891,3.3659 -44.8178,4.9621 -57.9284,2.878 z"
     id="path4531"
     inkscape:connector-curvature="0"
     transform="matrix(0.93750166,0,0,0.93750166,-0.0037595,0)" />
  <path
     style="fill:#3d6b99;fill-opacity:0;stroke-width:1.98940921"
     d="m 2655.175,1316.0073 c -42.4478,-6.7476 -72.3492,-31.8295 -85.5365,-71.7498 -3.2886,-9.9549 -3.678,-21.3029 -4.3181,-125.8301 l -0.7035,-114.8884 h 20.0114 20.0115 l 0.071,92.0102 c 0.078,100.495 1.3696,124.1184 7.7075,140.9086 8.3636,22.1569 25.8831,35.7282 51.1911,39.6549 38.7128,6.0065 69.3638,-11.2608 80.6088,-45.4109 4.2475,-12.8994 4.4043,-16.5319 5.1903,-120.232 l 0.8104,-106.9308 h 19.8483 19.8482 l -0.806,114.8884 c -0.5657,80.6243 -1.5156,117.4903 -3.185,123.6126 -9.226,33.8359 -37.8973,61.8254 -72.821,71.0893 -12.6891,3.3659 -44.8178,4.9621 -57.9284,2.878 z"
     id="path4533"
     inkscape:connector-curvature="0"
     transform="matrix(0.93750166,0,0,0.93750166,-0.0037595,0)" />
  <path
     style="fill:#3d6b99;fill-opacity:0;stroke-width:1.98940921"
     d="m 2655.175,1316.0073 c -42.4478,-6.7476 -72.3492,-31.8295 -85.5365,-71.7498 -3.2886,-9.9549 -3.678,-21.3029 -4.3181,-125.8301 l -0.7035,-114.8884 h 20.0114 20.0115 l 0.071,92.0102 c 0.078,100.495 1.3696,124.1184 7.7075,140.9086 8.3636,22.1569 25.8831,35.7282 51.1911,39.6549 38.7128,6.0065 69.3638,-11.2608 80.6088,-45.4109 4.2475,-12.8994 4.4043,-16.5319 5.1903,-120.232 l 0.8104,-106.9308 h 19.8483 19.8482 l -0.806,114.8884 c -0.5657,80.6243 -1.5156,117.4903 -3.185,123.6126 -9.226,33.8359 -37.8973,61.8254 -72.821,71.0893 -12.6891,3.3659 -44.8178,4.9621 -57.9284,2.878 z"
     id="path4535"
     inkscape:connector-curvature="0"
     transform="matrix(0.93750166,0,0,0.93750166,-0.0037595,0)" />
  <path
     style="fill:#3d6b99;fill-opacity:0;stroke-width:1.98940921"
     d="m 2655.175,1316.0073 c -42.4478,-6.7476 -72.3492,-31.8295 -85.5365,-71.7498 -3.2886,-9.9549 -3.678,-21.3029 -4.3181,-125.8301 l -0.7035,-114.8884 h 20.0114 20.0115 l 0.071,92.0102 c 0.078,100.495 1.3696,124.1184 7.7075,140.9086 8.3636,22.1569 25.8831,35.7282 51.1911,39.6549 38.7128,6.0065 69.3638,-11.2608 80.6088,-45.4109 4.2475,-12.8994 4.4043,-16.5319 5.1903,-120.232 l 0.8104,-106.9308 h 19.8483 19.8482 l -0.806,114.8884 c -0.5657,80.6243 -1.5156,117.4903 -3.185,123.6126 -9.226,33.8359 -37.8973,61.8254 -72.821,71.0893 -12.6891,3.3659 -44.8178,4.9621 -57.9284,2.878 z"
     id="path4537"
     inkscape:connector-curvature="0"
     transform="matrix(0.93750166,0,0,0.93750166,-0.0037595,0)" />
  <path
     style="fill:#3d6b99;fill-opacity:0;stroke-width:1.98940921"
     d="m 2655.175,1316.0073 c -42.4478,-6.7476 -72.3492,-31.8295 -85.5365,-71.7498 -3.2886,-9.9549 -3.678,-21.3029 -4.3181,-125.8301 l -0.7035,-114.8884 h 20.0114 20.0115 l 0.071,92.0102 c 0.078,100.495 1.3696,124.1184 7.7075,140.9086 8.3636,22.1569 25.8831,35.7282 51.1911,39.6549 38.7128,6.0065 69.3638,-11.2608 80.6088,-45.4109 4.2475,-12.8994 4.4043,-16.5319 5.1903,-120.232 l 0.8104,-106.9308 h 19.8483 19.8482 l -0.806,114.8884 c -0.5657,80.6243 -1.5156,117.4903 -3.185,123.6126 -9.226,33.8359 -37.8973,61.8254 -72.821,71.0893 -12.6891,3.3659 -44.8178,4.9621 -57.9284,2.878 z"
     id="path4539"
     inkscape:connector-curvature="0"
     transform="matrix(0.93750166,0,0,0.93750166,-0.0037595,0)" />
  <path
     style="fill:#3d6b99;fill-opacity:0;stroke-width:1.98940921"
     d="m 1218.514,1367.0993 c -5.3847,-6.8362 -31.1638,-40.6294 -57.2869,-75.0959 -26.1231,-34.4666 -88.7118,-116.8386 -139.0859,-183.0491 -50.37411,-66.2105 -93.53061,-123.05627 -95.90333,-126.32389 -2.37271,-3.26763 -4.86598,-5.38919 -5.54059,-4.71458 -0.67459,0.6746 -2.03612,34.69187 -3.02559,75.59387 -1.77949,73.5578 -3.02967,85.7257 -9.04509,88.034 -1.51133,0.58 -4.80448,-0.6108 -7.3181,-2.6462 l -4.57021,-3.7008 -1.27615,-91.8036 c -0.7019,-50.49207 -1.59857,-92.03545 -1.99259,-92.31868 -0.39404,-0.28322 -12.80209,-5.1284 -27.57345,-10.76704 C 654.62155,859.65792 573.09582,828.08806 433.19958,772.75083 161.1853,665.15314 37.379599,613.81715 43.584748,611.19719 45.60294,610.34506 121.11101,590.40237 211.38045,566.8801 c 90.26945,-23.52227 198.14516,-51.71074 239.72382,-62.64103 94.4146,-24.81993 93.19688,-24.58244 98.20659,-19.15271 2.12642,2.3047 37.31002,47.1616 78.18579,99.68201 85.26793,109.55894 251.22507,320.89925 260.10695,331.23664 l 5.98253,6.96293 0.0808,-45.61653 0.0808,-45.61656 -11.83372,-41.91745 c -14.52888,-51.46429 -15.58537,-56.13482 -19.14007,-84.61415 -4.46817,-35.79761 -4.3352,-36.84658 5.15173,-40.6425 4.39901,-1.76007 8.24601,-3.20012 8.54907,-3.20012 0.30307,0 0.56165,17.68087 0.57462,39.29083 0.0261,43.44331 2.47258,59.54306 15.15916,99.75843 l 6.52365,20.67941 7.38382,0.20939 7.38379,0.20938 6.82556,-17.90468 c 17.50676,-45.92339 20.29671,-63.14208 17.35143,-107.08771 -1.16076,-17.3196 -2.6794,-32.41068 -3.37473,-33.53575 -1.60478,-2.59658 6.47497,-0.29488 12.66255,3.60723 4.20101,2.6493 4.47617,4.17238 4.47617,24.77674 0,35.3 -6.14626,66.39892 -23.02389,116.4967 l -8.80666,26.14074 0.0304,41.49918 c 0.0159,22.82455 0.75591,42.64235 1.64259,44.03955 1.0823,1.70546 10.13835,-10.71701 27.55551,-37.79877 95.08579,-147.84795 263.08319,-401.42172 265.93419,-401.39877 9.9272,0.0799 317.5011,84.02153 449.5162,122.67983 l 31.4758,9.21713 -40.4281,17.83861 c -22.2355,9.81123 -88.7708,39.04569 -147.8562,64.96545 -425.3365,186.58777 -581.89765,255.63742 -581.86763,256.6265 0.0199,0.62646 18.14751,7.7273 40.28554,15.77961 22.13803,8.05232 125.29819,45.96244 229.24479,84.24474 103.9467,38.2823 222.1176,81.6894 262.6021,96.4603 40.4844,14.7709 104.9413,38.4357 143.2374,52.5886 38.2961,14.1528 74.7769,27.6043 81.0684,29.8923 6.2916,2.288 11.4392,4.8044 11.4392,5.592 0,0.7875 -3.8048,2.5278 -8.455,3.8673 -13.8369,3.9855 -164.9054,50.1988 -262.1047,80.1804 -149.387,46.079 -183.7626,56.6028 -189.3233,57.9597 -4.7231,1.1524 -6.3736,-0.065 -15.0934,-11.1357 z m 96.9886,-57.9715 c 34.4665,-9.1767 66.4711,-17.7136 71.1214,-18.9708 4.6502,-1.2572 8.455,-3.1897 8.455,-4.2944 0,-1.9991 -86.4211,-59.6753 -224.8033,-150.0305 -39.9374,-26.0767 -97.9756,-64.3279 -128.9738,-85.0028 -57.71114,-38.4915 -62.00947,-41.1182 -62.00947,-37.8937 0,1.0255 28.42367,34.4936 63.16377,74.3734 62.1248,71.3162 133.7792,154.3711 181.3168,210.1652 13.2847,15.592 25.2586,28.3468 26.6086,28.3439 1.35,0 30.6545,-7.5135 65.121,-16.6903 z m 131.301,-35.7237 c 78.4074,-20.9685 131.806,-36.0402 134.3918,-37.932 2.3002,-1.6827 -11.8062,-7.905 -64.2301,-28.3316 -36.9477,-14.3964 -147.7487,-57.6822 -246.2244,-96.1907 -212.1779,-82.9711 -260.1921,-101.5315 -260.8786,-100.845 -0.2818,0.2818 0.1104,1.5131 0.8715,2.7361 1.0947,1.7592 375.976,249.2014 399.2657,263.5374 7.7792,4.7885 7.7766,4.7887 36.8041,-2.9742 z M 788.24663,886.66122 c -0.0785,-1.87342 16.62736,9.90681 -163.06905,-114.98908 C 540.37901,712.73388 439.21755,642.33853 400.37433,615.23804 353.09706,582.2532 328.05125,565.94865 324.61066,565.9167 c -2.82679,-0.0262 -18.04577,3.46837 -33.81995,7.76582 -15.77417,4.29745 -55.50846,15.10487 -88.29843,24.01648 -32.78996,8.91162 -60.79842,16.86347 -62.24103,17.6708 -1.5871,0.88819 34.13378,16.63165 90.45396,39.86626 173.64635,71.63697 544.20924,226.81208 551.6357,231.00033 3.82476,2.15699 5.9848,2.31239 5.90572,0.42483 z m 279.57447,-21.97704 c 19.6952,-8.77672 44.7617,-20.16222 55.7035,-25.30113 10.9417,-5.1389 71.3701,-32.86645 134.2851,-61.6168 307.8323,-140.67033 350.1361,-160.25412 350.1361,-162.08938 0,-1.41345 -166.9847,-49.80789 -171.8618,-49.80789 -4.65,0 -6.6252,1.4285 -68.8568,49.79947 -93.4481,72.63473 -270.3956,208.59714 -311.6574,239.47035 -22.0566,16.5034 -39.7355,30.60085 -39.2863,31.32764 0.4492,0.72679 4.1718,-0.28643 8.2725,-2.25159 4.1007,-1.96514 23.57,-10.75395 43.2651,-19.53067 z M 828.09732,884.8596 c 0,-1.88316 0.59285,-1.12133 -132.12385,-169.78492 C 577.43951,564.43526 538.97996,515.45225 538.75131,514.83281 c -0.0622,-0.16844 -33.68432,9.01107 -74.71588,20.39889 -41.03157,11.38783 -80.19806,22.23185 -87.03666,24.09783 -6.83859,1.86599 -12.4338,3.97743 -12.4338,4.69211 0,1.36206 11.78945,9.6518 255.63909,179.75227 206.06364,143.74238 207.89326,144.98403 207.89326,141.08569 z m 158.96496,-4.08908 c 3.93289,-2.96632 39.37912,-31.44514 78.76942,-63.28623 83.1829,-67.24078 221.0986,-175.76818 278.7872,-219.38088 22.032,-16.65619 41.1184,-31.56149 42.4143,-33.1229 1.9652,-2.36794 0.1052,-3.49637 -11.2117,-6.8018 -7.4623,-2.17958 -40.8724,-11.98457 -74.2448,-21.78887 -33.3723,-9.80429 -63.5155,-18.42831 -66.9849,-19.16448 -5.8765,-1.24696 -6.8432,-0.6158 -14.1354,9.22935 -14.0553,18.97603 -241.64075,354.28725 -242.82181,357.75954 -1.12646,3.31177 1.97115,2.18029 9.42769,-3.44373 z"
     id="path4541"
     inkscape:connector-curvature="0"
     transform="matrix(0.93750166,0,0,0.93750166,-0.0037595,0)" />
  <path
     style="fill:#3d6b99;fill-opacity:0;stroke-width:1.98940921"
     d="m 1218.514,1367.0993 c -5.3847,-6.8362 -31.1638,-40.6294 -57.2869,-75.0959 -26.1231,-34.4666 -88.7118,-116.8386 -139.0859,-183.0491 -50.37411,-66.2105 -93.53061,-123.05627 -95.90333,-126.32389 -2.37271,-3.26763 -4.86598,-5.38919 -5.54059,-4.71458 -0.67459,0.6746 -2.03612,34.69187 -3.02559,75.59387 -1.77949,73.5578 -3.02967,85.7257 -9.04509,88.034 -1.51133,0.58 -4.80448,-0.6108 -7.3181,-2.6462 l -4.57021,-3.7008 -1.27615,-91.8036 c -0.7019,-50.49207 -1.59857,-92.03545 -1.99259,-92.31868 -0.39404,-0.28322 -12.80209,-5.1284 -27.57345,-10.76704 C 654.62155,859.65792 573.09582,828.08806 433.19958,772.75083 161.1853,665.15314 37.379599,613.81715 43.584748,611.19719 45.60294,610.34506 121.11101,590.40237 211.38045,566.8801 c 90.26945,-23.52227 198.14516,-51.71074 239.72382,-62.64103 94.4146,-24.81993 93.19688,-24.58244 98.20659,-19.15271 2.12642,2.3047 37.31002,47.1616 78.18579,99.68201 85.26793,109.55894 251.22507,320.89925 260.10695,331.23664 l 5.98253,6.96293 0.0808,-45.61653 0.0808,-45.61656 -11.83372,-41.91745 c -14.52888,-51.46429 -15.58537,-56.13482 -19.14007,-84.61415 -4.46817,-35.79761 -4.3352,-36.84658 5.15173,-40.6425 4.39901,-1.76007 8.24601,-3.20012 8.54907,-3.20012 0.30307,0 0.56165,17.68087 0.57462,39.29083 0.0261,43.44331 2.47258,59.54306 15.15916,99.75843 l 6.52365,20.67941 7.38382,0.20939 7.38379,0.20938 6.82556,-17.90468 c 17.50676,-45.92339 20.29671,-63.14208 17.35143,-107.08771 -1.16076,-17.3196 -2.6794,-32.41068 -3.37473,-33.53575 -1.60478,-2.59658 6.47497,-0.29488 12.66255,3.60723 4.20101,2.6493 4.47617,4.17238 4.47617,24.77674 0,35.3 -6.14626,66.39892 -23.02389,116.4967 l -8.80666,26.14074 0.0304,41.49918 c 0.0159,22.82455 0.75591,42.64235 1.64259,44.03955 1.0823,1.70546 10.13835,-10.71701 27.55551,-37.79877 95.08579,-147.84795 263.08319,-401.42172 265.93419,-401.39877 9.9272,0.0799 317.5011,84.02153 449.5162,122.67983 l 31.4758,9.21713 -40.4281,17.83861 c -22.2355,9.81123 -88.7708,39.04569 -147.8562,64.96545 -425.3365,186.58777 -581.89765,255.63742 -581.86763,256.6265 0.0199,0.62646 18.14751,7.7273 40.28554,15.77961 22.13803,8.05232 125.29819,45.96244 229.24479,84.24474 103.9467,38.2823 222.1176,81.6894 262.6021,96.4603 40.4844,14.7709 104.9413,38.4357 143.2374,52.5886 38.2961,14.1528 74.7769,27.6043 81.0684,29.8923 6.2916,2.288 11.4392,4.8044 11.4392,5.592 0,0.7875 -3.8048,2.5278 -8.455,3.8673 -13.8369,3.9855 -164.9054,50.1988 -262.1047,80.1804 -149.387,46.079 -183.7626,56.6028 -189.3233,57.9597 -4.7231,1.1524 -6.3736,-0.065 -15.0934,-11.1357 z m 96.9886,-57.9715 c 34.4665,-9.1767 66.4711,-17.7136 71.1214,-18.9708 4.6502,-1.2572 8.455,-3.1897 8.455,-4.2944 0,-1.9991 -86.4211,-59.6753 -224.8033,-150.0305 -39.9374,-26.0767 -97.9756,-64.3279 -128.9738,-85.0028 -57.71114,-38.4915 -62.00947,-41.1182 -62.00947,-37.8937 0,1.0255 28.42367,34.4936 63.16377,74.3734 62.1248,71.3162 133.7792,154.3711 181.3168,210.1652 13.2847,15.592 25.2586,28.3468 26.6086,28.3439 1.35,0 30.6545,-7.5135 65.121,-16.6903 z m 131.301,-35.7237 c 78.4074,-20.9685 131.806,-36.0402 134.3918,-37.932 2.3002,-1.6827 -11.8062,-7.905 -64.2301,-28.3316 -36.9477,-14.3964 -147.7487,-57.6822 -246.2244,-96.1907 -212.1779,-82.9711 -260.1921,-101.5315 -260.8786,-100.845 -0.2818,0.2818 0.1104,1.5131 0.8715,2.7361 1.0947,1.7592 375.976,249.2014 399.2657,263.5374 7.7792,4.7885 7.7766,4.7887 36.8041,-2.9742 z M 788.24663,886.66122 c -0.0785,-1.87342 16.62736,9.90681 -163.06905,-114.98908 C 540.37901,712.73388 439.21755,642.33853 400.37433,615.23804 353.09706,582.2532 328.05125,565.94865 324.61066,565.9167 c -2.82679,-0.0262 -18.04577,3.46837 -33.81995,7.76582 -15.77417,4.29745 -55.50846,15.10487 -88.29843,24.01648 -32.78996,8.91162 -60.79842,16.86347 -62.24103,17.6708 -1.5871,0.88819 34.13378,16.63165 90.45396,39.86626 173.64635,71.63697 544.20924,226.81208 551.6357,231.00033 3.82476,2.15699 5.9848,2.31239 5.90572,0.42483 z m 279.57447,-21.97704 c 19.6952,-8.77672 44.7617,-20.16222 55.7035,-25.30113 10.9417,-5.1389 71.3701,-32.86645 134.2851,-61.6168 307.8323,-140.67033 350.1361,-160.25412 350.1361,-162.08938 0,-1.41345 -166.9847,-49.80789 -171.8618,-49.80789 -4.65,0 -6.6252,1.4285 -68.8568,49.79947 -93.4481,72.63473 -270.3956,208.59714 -311.6574,239.47035 -22.0566,16.5034 -39.7355,30.60085 -39.2863,31.32764 0.4492,0.72679 4.1718,-0.28643 8.2725,-2.25159 4.1007,-1.96514 23.57,-10.75395 43.2651,-19.53067 z M 828.09732,884.8596 c 0,-1.88316 0.59285,-1.12133 -132.12385,-169.78492 C 577.43951,564.43526 538.97996,515.45225 538.75131,514.83281 c -0.0622,-0.16844 -33.68432,9.01107 -74.71588,20.39889 -41.03157,11.38783 -80.19806,22.23185 -87.03666,24.09783 -6.83859,1.86599 -12.4338,3.97743 -12.4338,4.69211 0,1.36206 11.78945,9.6518 255.63909,179.75227 206.06364,143.74238 207.89326,144.98403 207.89326,141.08569 z m 158.96496,-4.08908 c 3.93289,-2.96632 39.37912,-31.44514 78.76942,-63.28623 83.1829,-67.24078 221.0986,-175.76818 278.7872,-219.38088 22.032,-16.65619 41.1184,-31.56149 42.4143,-33.1229 1.9652,-2.36794 0.1052,-3.49637 -11.2117,-6.8018 -7.4623,-2.17958 -40.8724,-11.98457 -74.2448,-21.78887 -33.3723,-9.80429 -63.5155,-18.42831 -66.9849,-19.16448 -5.8765,-1.24696 -6.8432,-0.6158 -14.1354,9.22935 -14.0553,18.97603 -241.64075,354.28725 -242.82181,357.75954 -1.12646,3.31177 1.97115,2.18029 9.42769,-3.44373 z"
     id="path4543"
     inkscape:connector-curvature="0"
     transform="matrix(0.93750166,0,0,0.93750166,-0.0037595,0)" />
  <path
     style="fill:#3d6b99;fill-opacity:0;stroke-width:1.98940921;filter:url(#filter4607)"
     d="m 1218.514,1367.0993 c -5.3847,-6.8362 -31.1638,-40.6294 -57.2869,-75.0959 -26.1231,-34.4666 -88.7118,-116.8386 -139.0859,-183.0491 -50.37411,-66.2105 -93.53061,-123.05627 -95.90333,-126.32389 -2.37271,-3.26763 -4.86598,-5.38919 -5.54059,-4.71458 -0.67459,0.6746 -2.03612,34.69187 -3.02559,75.59387 -1.77949,73.5578 -3.02967,85.7257 -9.04509,88.034 -1.51133,0.58 -4.80448,-0.6108 -7.3181,-2.6462 l -4.57021,-3.7008 -1.27615,-91.8036 c -0.7019,-50.49207 -1.59857,-92.03545 -1.99259,-92.31868 -0.39404,-0.28322 -12.80209,-5.1284 -27.57345,-10.76704 C 654.62155,859.65792 573.09582,828.08806 433.19958,772.75083 161.1853,665.15314 37.379599,613.81715 43.584748,611.19719 45.60294,610.34506 121.11101,590.40237 211.38045,566.8801 c 90.26945,-23.52227 198.14516,-51.71074 239.72382,-62.64103 94.4146,-24.81993 93.19688,-24.58244 98.20659,-19.15271 2.12642,2.3047 37.31002,47.1616 78.18579,99.68201 85.26793,109.55894 251.22507,320.89925 260.10695,331.23664 l 5.98253,6.96293 0.0808,-45.61653 0.0808,-45.61656 -11.83372,-41.91745 c -14.52888,-51.46429 -15.58537,-56.13482 -19.14007,-84.61415 -4.46817,-35.79761 -4.3352,-36.84658 5.15173,-40.6425 4.39901,-1.76007 8.24601,-3.20012 8.54907,-3.20012 0.30307,0 0.56165,17.68087 0.57462,39.29083 0.0261,43.44331 2.47258,59.54306 15.15916,99.75843 l 6.52365,20.67941 7.38382,0.20939 7.38379,0.20938 6.82556,-17.90468 c 17.50676,-45.92339 20.29671,-63.14208 17.35143,-107.08771 -1.16076,-17.3196 -2.6794,-32.41068 -3.37473,-33.53575 -1.60478,-2.59658 6.47497,-0.29488 12.66255,3.60723 4.20101,2.6493 4.47617,4.17238 4.47617,24.77674 0,35.3 -6.14626,66.39892 -23.02389,116.4967 l -8.80666,26.14074 0.0304,41.49918 c 0.0159,22.82455 0.75591,42.64235 1.64259,44.03955 1.0823,1.70546 10.13835,-10.71701 27.55551,-37.79877 95.08579,-147.84795 263.08319,-401.42172 265.93419,-401.39877 9.9272,0.0799 317.5011,84.02153 449.5162,122.67983 l 31.4758,9.21713 -40.4281,17.83861 c -22.2355,9.81123 -88.7708,39.04569 -147.8562,64.96545 -425.3365,186.58777 -581.89765,255.63742 -581.86763,256.6265 0.0199,0.62646 18.14751,7.7273 40.28554,15.77961 22.13803,8.05232 125.29819,45.96244 229.24479,84.24474 103.9467,38.2823 222.1176,81.6894 262.6021,96.4603 40.4844,14.7709 104.9413,38.4357 143.2374,52.5886 38.2961,14.1528 74.7769,27.6043 81.0684,29.8923 6.2916,2.288 11.4392,4.8044 11.4392,5.592 0,0.7875 -3.8048,2.5278 -8.455,3.8673 -13.8369,3.9855 -164.9054,50.1988 -262.1047,80.1804 -149.387,46.079 -183.7626,56.6028 -189.3233,57.9597 -4.7231,1.1524 -6.3736,-0.065 -15.0934,-11.1357 z m 96.9886,-57.9715 c 34.4665,-9.1767 66.4711,-17.7136 71.1214,-18.9708 4.6502,-1.2572 8.455,-3.1897 8.455,-4.2944 0,-1.9991 -86.4211,-59.6753 -224.8033,-150.0305 -39.9374,-26.0767 -97.9756,-64.3279 -128.9738,-85.0028 -57.71114,-38.4915 -62.00947,-41.1182 -62.00947,-37.8937 0,1.0255 28.42367,34.4936 63.16377,74.3734 62.1248,71.3162 133.7792,154.3711 181.3168,210.1652 13.2847,15.592 25.2586,28.3468 26.6086,28.3439 1.35,0 30.6545,-7.5135 65.121,-16.6903 z m 131.301,-35.7237 c 78.4074,-20.9685 131.806,-36.0402 134.3918,-37.932 2.3002,-1.6827 -11.8062,-7.905 -64.2301,-28.3316 -36.9477,-14.3964 -147.7487,-57.6822 -246.2244,-96.1907 -212.1779,-82.9711 -260.1921,-101.5315 -260.8786,-100.845 -0.2818,0.2818 0.1104,1.5131 0.8715,2.7361 1.0947,1.7592 375.976,249.2014 399.2657,263.5374 7.7792,4.7885 7.7766,4.7887 36.8041,-2.9742 z M 788.24663,886.66122 c -0.0785,-1.87342 16.62736,9.90681 -163.06905,-114.98908 C 540.37901,712.73388 439.21755,642.33853 400.37433,615.23804 353.09706,582.2532 328.05125,565.94865 324.61066,565.9167 c -2.82679,-0.0262 -18.04577,3.46837 -33.81995,7.76582 -15.77417,4.29745 -55.50846,15.10487 -88.29843,24.01648 -32.78996,8.91162 -60.79842,16.86347 -62.24103,17.6708 -1.5871,0.88819 34.13378,16.63165 90.45396,39.86626 173.64635,71.63697 544.20924,226.81208 551.6357,231.00033 3.82476,2.15699 5.9848,2.31239 5.90572,0.42483 z m 279.57447,-21.97704 c 19.6952,-8.77672 44.7617,-20.16222 55.7035,-25.30113 10.9417,-5.1389 71.3701,-32.86645 134.2851,-61.6168 307.8323,-140.67033 350.1361,-160.25412 350.1361,-162.08938 0,-1.41345 -166.9847,-49.80789 -171.8618,-49.80789 -4.65,0 -6.6252,1.4285 -68.8568,49.79947 -93.4481,72.63473 -270.3956,208.59714 -311.6574,239.47035 -22.0566,16.5034 -39.7355,30.60085 -39.2863,31.32764 0.4492,0.72679 4.1718,-0.28643 8.2725,-2.25159 4.1007,-1.96514 23.57,-10.75395 43.2651,-19.53067 z M 828.09732,884.8596 c 0,-1.88316 0.59285,-1.12133 -132.12385,-169.78492 C 577.43951,564.43526 538.97996,515.45225 538.75131,514.83281 c -0.0622,-0.16844 -33.68432,9.01107 -74.71588,20.39889 -41.03157,11.38783 -80.19806,22.23185 -87.03666,24.09783 -6.83859,1.86599 -12.4338,3.97743 -12.4338,4.69211 0,1.36206 11.78945,9.6518 255.63909,179.75227 206.06364,143.74238 207.89326,144.98403 207.89326,141.08569 z m 158.96496,-4.08908 c 3.93289,-2.96632 39.37912,-31.44514 78.76942,-63.28623 83.1829,-67.24078 221.0986,-175.76818 278.7872,-219.38088 22.032,-16.65619 41.1184,-31.56149 42.4143,-33.1229 1.9652,-2.36794 0.1052,-3.49637 -11.2117,-6.8018 -7.4623,-2.17958 -40.8724,-11.98457 -74.2448,-21.78887 -33.3723,-9.80429 -63.5155,-18.42831 -66.9849,-19.16448 -5.8765,-1.24696 -6.8432,-0.6158 -14.1354,9.22935 -14.0553,18.97603 -241.64075,354.28725 -242.82181,357.75954 -1.12646,3.31177 1.97115,2.18029 9.42769,-3.44373 z"
     id="path4549"
     inkscape:connector-curvature="0"
     transform="matrix(0.93750166,0,0,0.93750166,-0.0037595,0)" />
  <path
     style="fill:#3d6b99;fill-opacity:1;stroke-width:1.98940921"
     d="m 1218.514,1367.0993 c -5.3847,-6.8362 -31.1638,-40.6294 -57.2869,-75.0959 -26.1231,-34.4666 -88.7118,-116.8386 -139.0859,-183.0491 -50.37411,-66.2105 -93.53061,-123.05627 -95.90333,-126.32389 -2.37271,-3.26763 -4.86598,-5.38919 -5.54059,-4.71458 -0.67459,0.6746 -2.03612,34.69187 -3.02559,75.59387 -1.77949,73.5578 -3.02967,85.7257 -9.04509,88.034 -1.51133,0.58 -4.80448,-0.6108 -7.3181,-2.6462 l -4.57021,-3.7008 -1.27615,-91.8036 c -0.7019,-50.49207 -1.59857,-92.03545 -1.99259,-92.31868 -0.39404,-0.28322 -12.80209,-5.1284 -27.57345,-10.76704 C 654.62155,859.65792 573.09582,828.08806 433.19958,772.75083 161.1853,665.15314 37.379599,613.81715 43.584748,611.19719 45.60294,610.34506 121.11101,590.40237 211.38045,566.8801 c 90.26945,-23.52227 198.14516,-51.71074 239.72382,-62.64103 94.4146,-24.81993 93.19688,-24.58244 98.20659,-19.15271 2.12642,2.3047 37.31002,47.1616 78.18579,99.68201 85.26793,109.55894 251.22507,320.89925 260.10695,331.23664 l 5.98253,6.96293 0.0808,-45.61653 0.0808,-45.61656 -11.83372,-41.91745 c -14.52888,-51.46429 -15.58537,-56.13482 -19.14007,-84.61415 -4.46817,-35.79761 -4.3352,-36.84658 5.15173,-40.6425 4.39901,-1.76007 8.24601,-3.20012 8.54907,-3.20012 0.30307,0 0.56165,17.68087 0.57462,39.29083 0.0261,43.44331 2.47258,59.54306 15.15916,99.75843 l 6.52365,20.67941 7.38382,0.20939 7.38379,0.20938 6.82556,-17.90468 c 17.50676,-45.92339 20.29671,-63.14208 17.35143,-107.08771 -1.16076,-17.3196 -2.6794,-32.41068 -3.37473,-33.53575 -1.60478,-2.59658 6.47497,-0.29488 12.66255,3.60723 4.20101,2.6493 4.47617,4.17238 4.47617,24.77674 0,35.3 -6.14626,66.39892 -23.02389,116.4967 l -8.80666,26.14074 0.0304,41.49918 c 0.0159,22.82455 0.75591,42.64235 1.64259,44.03955 1.0823,1.70546 10.13835,-10.71701 27.55551,-37.79877 95.08579,-147.84795 263.08319,-401.42172 265.93419,-401.39877 9.9272,0.0799 317.5011,84.02153 449.5162,122.67983 l 31.4758,9.21713 -40.4281,17.83861 c -22.2355,9.81123 -88.7708,39.04569 -147.8562,64.96545 -425.3365,186.58777 -581.89765,255.63742 -581.86763,256.6265 0.0199,0.62646 18.14751,7.7273 40.28554,15.77961 22.13803,8.05232 125.29819,45.96244 229.24479,84.24474 103.9467,38.2823 222.1176,81.6894 262.6021,96.4603 40.4844,14.7709 104.9413,38.4357 143.2374,52.5886 38.2961,14.1528 74.7769,27.6043 81.0684,29.8923 6.2916,2.288 11.4392,4.8044 11.4392,5.592 0,0.7875 -3.8048,2.5278 -8.455,3.8673 -13.8369,3.9855 -164.9054,50.1988 -262.1047,80.1804 -149.387,46.079 -183.7626,56.6028 -189.3233,57.9597 -4.7231,1.1524 -6.3736,-0.065 -15.0934,-11.1357 z m 96.9886,-57.9715 c 34.4665,-9.1767 66.4711,-17.7136 71.1214,-18.9708 4.6502,-1.2572 8.455,-3.1897 8.455,-4.2944 0,-1.9991 -86.4211,-59.6753 -224.8033,-150.0305 -39.9374,-26.0767 -97.9756,-64.3279 -128.9738,-85.0028 -57.71114,-38.4915 -62.00947,-41.1182 -62.00947,-37.8937 0,1.0255 28.42367,34.4936 63.16377,74.3734 62.1248,71.3162 133.7792,154.3711 181.3168,210.1652 13.2847,15.592 25.2586,28.3468 26.6086,28.3439 1.35,0 30.6545,-7.5135 65.121,-16.6903 z m 131.301,-35.7237 c 78.4074,-20.9685 131.806,-36.0402 134.3918,-37.932 2.3002,-1.6827 -11.8062,-7.905 -64.2301,-28.3316 -36.9477,-14.3964 -147.7487,-57.6822 -246.2244,-96.1907 -212.1779,-82.9711 -260.1921,-101.5315 -260.8786,-100.845 -0.2818,0.2818 0.1104,1.5131 0.8715,2.7361 1.0947,1.7592 375.976,249.2014 399.2657,263.5374 7.7792,4.7885 7.7766,4.7887 36.8041,-2.9742 z M 788.24663,886.66122 c -0.0785,-1.87342 16.62736,9.90681 -163.06905,-114.98908 C 540.37901,712.73388 439.21755,642.33853 400.37433,615.23804 353.09706,582.2532 328.05125,565.94865 324.61066,565.9167 c -2.82679,-0.0262 -18.04577,3.46837 -33.81995,7.76582 -15.77417,4.29745 -55.50846,15.10487 -88.29843,24.01648 -32.78996,8.91162 -60.79842,16.86347 -62.24103,17.6708 -1.5871,0.88819 34.13378,16.63165 90.45396,39.86626 173.64635,71.63697 544.20924,226.81208 551.6357,231.00033 3.82476,2.15699 5.9848,2.31239 5.90572,0.42483 z m 279.57447,-21.97704 c 19.6952,-8.77672 44.7617,-20.16222 55.7035,-25.30113 10.9417,-5.1389 71.3701,-32.86645 134.2851,-61.6168 307.8323,-140.67033 350.1361,-160.25412 350.1361,-162.08938 0,-1.41345 -166.9847,-49.80789 -171.8618,-49.80789 -4.65,0 -6.6252,1.4285 -68.8568,49.79947 -93.4481,72.63473 -270.3956,208.59714 -311.6574,239.47035 -22.0566,16.5034 -39.7355,30.60085 -39.2863,31.32764 0.4492,0.72679 4.1718,-0.28643 8.2725,-2.25159 4.1007,-1.96514 23.57,-10.75395 43.2651,-19.53067 z M 828.09732,884.8596 c 0,-1.88316 0.59285,-1.12133 -132.12385,-169.78492 C 577.43951,564.43526 538.97996,515.45225 538.75131,514.83281 c -0.0622,-0.16844 -33.68432,9.01107 -74.71588,20.39889 -41.03157,11.38783 -80.19806,22.23185 -87.03666,24.09783 -6.83859,1.86599 -12.4338,3.97743 -12.4338,4.69211 0,1.36206 11.78945,9.6518 255.63909,179.75227 206.06364,143.74238 207.89326,144.98403 207.89326,141.08569 z m 158.96496,-4.08908 c 3.93289,-2.96632 39.37912,-31.44514 78.76942,-63.28623 83.1829,-67.24078 221.0986,-175.76818 278.7872,-219.38088 22.032,-16.65619 41.1184,-31.56149 42.4143,-33.1229 1.9652,-2.36794 0.1052,-3.49637 -11.2117,-6.8018 -7.4623,-2.17958 -40.8724,-11.98457 -74.2448,-21.78887 -33.3723,-9.80429 -63.5155,-18.42831 -66.9849,-19.16448 -5.8765,-1.24696 -6.8432,-0.6158 -14.1354,9.22935 -14.0553,18.97603 -241.64075,354.28725 -242.82181,357.75954 -1.12646,3.31177 1.97115,2.18029 9.42769,-3.44373 z"
     id="path4611"
     inkscape:connector-curvature="0"
     transform="matrix(0.93750166,0,0,0.93750166,-0.0037595,0)" />
  <path
     style="fill:#3d6b99;fill-opacity:1;stroke-width:1.98940921"
     d="m 2025.7217,1159.8382 v -152.3204 l 53.2167,0.051 c 88.8268,0.086 108.1435,3.9067 129.9097,25.6977 14.2734,14.2897 18.797,27.1719 18.5523,52.8326 -0.2879,30.1879 -8.9962,44.9472 -33.4175,56.6381 l -16.0714,7.6936 9.6535,2.439 c 23.0089,5.8131 45.9902,29.3255 51.1355,52.3171 3.5759,15.979 1.6403,45.7893 -3.7537,57.8112 -9.058,20.1876 -25.1289,34.3304 -49.2383,43.3305 -11.2226,4.1895 -15.2572,4.4296 -85.8813,5.1128 l -74.1055,0.7168 z m 118.3584,120.1358 c 38.2497,-4.3816 54.4149,-20.4283 54.6329,-54.2323 0.1195,-18.5377 -3.0425,-29.5113 -11.2751,-39.1292 -14.0259,-16.3862 -28.812,-19.7799 -86.616,-19.8805 l -35.312,-0.061 v 57.6928 57.6929 l 30.3385,-0.016 c 16.6861,-0.01 38.3904,-0.9387 48.2317,-2.066 z m 15.479,-149.2535 c 10.589,-3.5909 22.5913,-14.5184 25.5551,-23.2668 1.3841,-4.0856 2.5164,-13.695 2.5162,-21.3542 -4e-4,-15.7042 -3.3409,-23.9733 -13.4071,-33.1889 -10.4163,-9.5361 -21.7812,-11.7272 -67.4332,-13.0006 l -41.2802,-1.1515 v 48.2814 48.2814 l 43.2696,-1.027 c 27.2569,-0.647 46.0489,-1.9695 50.7796,-3.5738 z"
     id="path4621"
     inkscape:connector-curvature="0"
     transform="matrix(0.93750166,0,0,0.93750166,-0.0037595,0)" />
  <path
     style="fill:#3d6b99;fill-opacity:1;stroke-width:1.98940921"
     d="m 2324.1331,1159.7076 v -152.1898 h 19.8941 19.8941 v 136.2746 136.2745 h 74.6028 74.6029 v 15.9153 15.9153 h -94.497 -94.4969 z"
     id="path4623"
     inkscape:connector-curvature="0"
     transform="matrix(0.93750166,0,0,0.93750166,-0.0037595,0)" />
  <path
     style="fill:#3d6b99;fill-opacity:1;stroke-width:1.98940921"
     d="m 2655.175,1316.0073 c -42.4478,-6.7476 -72.3492,-31.8295 -85.5365,-71.7498 -3.2886,-9.9549 -3.678,-21.3029 -4.3181,-125.8301 l -0.7035,-114.8884 h 20.0114 20.0115 l 0.071,92.0102 c 0.078,100.495 1.3696,124.1184 7.7075,140.9086 8.3636,22.1569 25.8831,35.7282 51.1911,39.6549 38.7128,6.0065 69.3638,-11.2608 80.6088,-45.4109 4.2475,-12.8994 4.4043,-16.5319 5.1903,-120.232 l 0.8104,-106.9308 h 19.8483 19.8482 l -0.806,114.8884 c -0.5657,80.6243 -1.5156,117.4903 -3.185,123.6126 -9.226,33.8359 -37.8973,61.8254 -72.821,71.0893 -12.6891,3.3659 -44.8178,4.9621 -57.9284,2.878 z"
     id="path4625"
     inkscape:connector-curvature="0"
     transform="matrix(0.93750166,0,0,0.93750166,-0.0037595,0)" />
  <path
     style="fill:#3d6b99;fill-opacity:1;stroke-width:1.98940921"
     d="m 2879.1783,1159.7076 v -152.1898 h 95.4916 95.4917 v 16.91 16.91 h -75.5976 -75.5975 v 46.7511 46.7511 h 72.6134 72.6134 v 15.9153 15.9153 h -72.6134 -72.6134 v 56.6981 56.6982 h 77.5869 77.587 v 15.9153 15.9153 h -97.4811 -97.481 z"
     id="path4627"
     inkscape:connector-curvature="0"
     transform="matrix(0.93750166,0,0,0.93750166,-0.0037595,0)" />
  <path
     style="fill:#ffffff;fill-opacity:1;stroke-width:1.98940921"
     d="m 2025.7217,668.32355 v -152.1898 h 19.8941 19.8941 v 63.68473 63.68474 l 76.0949,-0.52099 76.0949,-0.521 0.5253,-63.16374 0.5253,-63.16374 h 19.8661 19.8662 v 152.1898 152.18981 h -19.8941 -19.8941 v -72.61343 -72.61344 h -76.5923 -76.5922 v 72.61344 72.61343 h -19.8941 -19.8941 z"
     id="path25"
     inkscape:connector-curvature="0"
     transform="matrix(0.93750166,0,0,0.93750166,-0.0037595,0)" />
  <path
     style="fill:#ffffff;fill-opacity:1;stroke-width:1.98940921"
     d="m 2437.5294,823.56639 c -46.8446,-11.77553 -83.2069,-49.65172 -96.5157,-100.53408 -4.4935,-17.17938 -6.2189,-68.02072 -3.0451,-89.72659 8.0687,-55.18196 40.8226,-97.87838 88.0087,-114.72392 12.5344,-4.47481 18.604,-5.30516 44.075,-6.02975 35.2556,-1.00293 49.7098,1.75827 73.9105,14.11922 35.7452,18.25755 61.5193,55.52436 69.7623,100.86939 3.2159,17.69047 3.6542,61.51119 0.7918,79.15007 -9.0311,55.65219 -41.6406,97.06552 -89.93,114.20912 -10.5653,3.75085 -17.2834,4.49712 -44.2852,4.91931 -22.0011,0.34401 -35.2094,-0.35167 -42.7723,-2.25277 z m 70.0986,-33.05224 c 30.9522,-10.42706 51.7467,-34.86788 62.492,-73.45007 5.127,-18.40927 5.2337,-76.95049 0.1736,-95.26778 -11.0681,-40.06571 -36.2966,-67.5177 -69.8026,-75.95461 -5.7323,-1.4434 -17.5293,-2.00943 -30.1662,-1.44741 -18.9676,0.84358 -22.0323,1.55543 -35.6307,8.27611 -24.8534,12.28323 -38.8684,29.58154 -50.1829,61.93911 -5.3093,15.18388 -5.5675,17.60663 -5.6172,52.71935 -0.057,40.58639 1.8233,51.43783 12.9604,74.77352 6.6288,13.88924 22.6126,32.594 33.9903,39.77641 20.8836,13.18324 56.9718,16.99373 81.7833,8.63537 z"
     id="path27"
     inkscape:connector-curvature="0"
     transform="matrix(0.93750166,0,0,0.93750166,-0.0037595,0)" />
  <path
     style="fill:#ffffff;fill-opacity:1;stroke-width:1.98940921"
     d="m 2694.1632,668.32355 v -152.1898 h 19.8941 19.8941 v 136.27453 136.27454 h 74.6028 74.6029 v 15.91527 15.91527 h -94.497 -94.4969 z"
     id="path29"
     inkscape:connector-curvature="0"
     transform="matrix(0.93750166,0,0,0.93750166,-0.0037595,0)" />
  <path
     style="fill:#ffffff;fill-opacity:1;stroke-width:1.98940921"
     d="m 3006.5004,748.25746 v -72.25591 l -22.0562,-32.68543 c -12.1309,-17.97699 -36.3113,-53.94725 -53.7343,-79.9339 l -31.6781,-47.24847 h 19.0504 c 10.4778,0 20.8249,0.94963 22.9936,2.11029 2.1687,1.16066 21.9166,29.13673 43.8841,62.16904 21.9675,33.03231 40.5008,60.24583 41.1851,60.47449 1.5106,0.50476 3.6903,-2.60007 48.4685,-69.04121 20.9969,-31.15494 37.2609,-53.35265 39.7711,-54.28126 2.3359,-0.86409 12.2553,-1.31583 22.0432,-1.00386 l 17.796,0.56721 -40.2426,59.68228 c -22.1334,32.82525 -46.195,68.54013 -53.4702,79.36639 l -13.2277,19.68412 -0.5899,72.32606 -0.59,72.32606 h -19.8015 -19.8015 z"
     id="path31"
     inkscape:connector-curvature="0"
     transform="matrix(0.93750166,0,0,0.93750166,-0.0037595,0)" />
</svg>
