<?xml version="1.0" encoding="utf-8"?>
<!-- Generator: Adobe Illustrator 24.1.0, SVG Export Plug-In . SVG Version: 6.00 Build 0)  -->
<svg version="1.1" id="Camada_1" xmlns="http://www.w3.org/2000/svg" xmlns:xlink="http://www.w3.org/1999/xlink" x="0px" y="0px"
	 viewBox="0 0 3192.5 1730.8" style="enable-background:new 0 0 3192.5 1730.8;" xml:space="preserve">
<style type="text/css">
	.st0{fill:#3D6B99;}
</style>
<defs>
	<defs>
		
			<animate  accumulate="none" additive="replace" attributeName="stdDeviation" begin="0s" calcMode="linear" dur="6s" fill="remove" repeatCount="indefinite" restart="always" values="20;45;40;10;20;">
			</animate>
	</defs>
</defs>
<g id="Logo" transform="translate(-452.383 -148.164)">
	<g id="logoDDesktop" transform="translate(2116.022 192.546)">
		<g id="Layer_2" transform="translate(211.441 87.068)">
			<line id="Line_64" class="st0" x1="55.7" y1="517.6" x2="113.3" y2="451.6"/>
			<path id="Line_65" class="st0" d="M124.1,467.9l58.1-65.7"/>
			<line id="Line_66" class="st0" x1="241.7" y1="346.7" x2="321" y2="255.9"/>
			<line id="Line_67" class="st0" x1="323.8" y1="310.2" x2="395.9" y2="227.6"/>
			<line id="Line_68" class="st0" x1="470.1" y1="149.4" x2="542.2" y2="66.9"/>
			<line id="Line_68-2" class="st0" x1="416.1" y1="193.4" x2="432" y2="176.9"/>
			<path id="Line_68-3" class="st0" d="M577.1,83.6l70-71.7"/>
			<path id="Path_207" class="st0" d="M380.4,168.5"/>
			<path id="Path_208" class="st0" d="M347.1,206.7"/>
			<line id="Line_71" class="st0" x1="263.9" y1="242.6" x2="321.5" y2="176.6"/>
			<path id="Line_72" class="st0" d="M181.6,357.1l58.5-66.5"/>
			<path id="Line_73" class="st0" d="M69.4,540.1l-13.7-22.2"/>
			<path id="Line_74" class="st0" d="M90.2,477.8l-21.6-33.6"/>
			<path id="Line_75" class="st0" d="M354.3,312.6L342,291"/>
			<path id="Line_76" class="st0" d="M289.9,290.1l-26-47.3"/>
			<line id="Line_77" class="st0" x1="124" y1="468" x2="105.2" y2="461.5"/>
			<path id="Line_78" class="st0" d="M376,117l56.4-64.8"/>
			<line id="Line_80" class="st0" x1="416.8" y1="153.6" x2="518" y2="32.9"/>
			<path id="Line_81" class="st0" d="M375.9,117l-44.7-54.8"/>
			<path id="Line_82" class="st0" d="M406.3,81.5l-49.2-60.2"/>
			<path id="Line_83" class="st0" d="M442.7,242.6l-15.8-29.2l-10.8-20"/>
			<path id="Line_83-2" class="st0" d="M496.7,198.6l-15.8-29.2l-10.8-20"/>
			<path id="Line_83-3" class="st0" d="M601,118.9l-23.5-34.7"/>
			<path id="Line_88" class="st0" d="M416.5,153.7l-127.1-31.4"/>
			<path id="Line_89" class="st0" d="M323.7,310.2l-43.3-6.7"/>
			<line id="Line_90" class="st0" x1="289" y1="359.9" x2="241.8" y2="347"/>
			<path id="Line_91" class="st0" d="M216.4,316.6l-50.3-12.9"/>
			<path id="Line_92" class="st0" d="M312,185.6l-55.3-14.5"/>
			<path id="Line_93" class="st0" d="M284.1,218.9l-50.8-13"/>
			<line id="Line_94" class="st0" x1="396" y1="278.9" x2="359.9" y2="268.9"/>
			<path id="Line_95" class="st0" d="M181.3,357.2l-42.7-11.5"/>
			<circle id="Ellipse_12" class="st0" cx="117.6" cy="445.2" r="7.3"/>
			<circle id="Ellipse_13" class="st0" cx="186" cy="395.9" r="7.3"/>
			<circle id="Ellipse_14" class="st0" cx="244" cy="283.6" r="7.3"/>
			<circle id="Ellipse_15" class="st0" cx="324.9" cy="248.8" r="7.3"/>
			<circle id="Ellipse_16" class="st0" cx="398.7" cy="221.5" r="7.3"/>
			<circle id="Ellipse_17" class="st0" cx="546.2" cy="60.2" r="7.3"/>
			<circle id="Ellipse_17-2" class="st0" cx="436.2" cy="171.2" r="7.3"/>
			<circle id="Ellipse_18" class="st0" cx="522.4" cy="25.9" r="7.3"/>
			<circle id="Ellipse_19" class="st0" cx="436.3" cy="46.1" r="7.3"/>
			<circle id="Ellipse_22" class="st0" cx="325.9" cy="170.4" r="7.3"/>
			<line id="Line_96" class="st0" x1="41" y1="976.9" x2="107.3" y2="1034.3"/>
			<line id="Line_97" class="st0" x1="90.7" y1="1045.5" x2="156.7" y2="1103.1"/>
			<path id="Line_98" class="st0" d="M181.3,1139.6l91.1,79"/>
			<path id="Line_99" class="st0" d="M221.7,1200.7l82.1,71.3"/>
			<line id="Line_100" class="st0" x1="327.5" y1="1333" x2="410.1" y2="1405.1"/>
			<path id="Line_101" class="st0" d="M477.6,1430l47.1,41.3"/>
			<path id="Line_102" class="st0" d="M613.2,1390.8l50,42.9"/>
			<path id="Line_103" class="st0" d="M519.4,1398.9l33.7,31.9"/>
			<path id="Path_209" class="st0" d="M359.4,1278.3"/>
			<path id="Path_210" class="st0" d="M321.2,1245"/>
			<path id="Line_104" class="st0" d="M285.3,1161.8l65.1,56.5"/>
			<path id="Line_105" class="st0" d="M180.8,1079.5l66.5,58.6"/>
			<line id="Line_106" class="st0" x1="20" y1="987.9" x2="41" y2="976.9"/>
			<line id="Line_107" class="st0" x1="83" y1="1010.9" x2="100" y2="1000.9"/>
			<line id="Line_107-2" class="st0" x1="124" y1="955.9" x2="141" y2="945.9"/>
			<path id="Line_109" class="st0" d="M238,1188.1l46.3-26.8"/>
			<line id="Line_110" class="st0" x1="90.9" y1="1044.9" x2="97.4" y2="1026.1"/>
			<path id="Line_111" class="st0" d="M410.9,1274l64.8,56"/>
			<path id="Line_112" class="st0" d="M517.5,1342.1l65.4,57.8"/>
			<path id="Line_113" class="st0" d="M373.6,1313.6l66.3,57.9"/>
			<path id="Line_114" class="st0" d="M411.1,1273.8l54.9-35"/>
			<path id="Line_115" class="st0" d="M446.1,1304.1l64.1-35.6"/>
			<path id="Line_116" class="st0" d="M322.5,1336.6l4.8-3.5"/>
			<path id="Line_117" class="st0" d="M425.9,1461.4l51.6-31.4"/>
			<path id="Line_118" class="st0" d="M444.3,1484.2l56.7-32.9"/>
			<path id="Line_119" class="st0" d="M517.6,1342l51.9-34.6"/>
			<line id="Line_120" class="st0" x1="519.3" y1="1398.9" x2="555.5" y2="1377.2"/>
			<path id="Line_121" class="st0" d="M613.1,1390.7l49.3-19.4"/>
			<path id="Line_122" class="st0" d="M373.6,1313.4l27.3-116.7"/>
			<path id="Line_123" class="st0" d="M218.3,1217.8l6.1-39.5"/>
			<path id="Line_124" class="st0" d="M174.6,1168.2l6.2-28.4"/>
			<path id="Line_125" class="st0" d="M221.3,1114.3l8.2-31"/>
			<path id="Line_126" class="st0" d="M342.3,1209.9v1.3l10.7-46"/>
			<path id="Line_127" class="st0" d="M308.8,1181.8l9.1-39.8"/>
			<path id="Line_129" class="st0" d="M180.8,1079.3l6.3-24"/>
			<circle id="Ellipse_23" class="st0" cx="113.7" cy="1038.6" r="7.3"/>
			<circle id="Ellipse_24" class="st0" cx="163" cy="1106.9" r="7.3"/>
			<circle id="Ellipse_25" class="st0" cx="254.3" cy="1141.9" r="7.3"/>
			<circle id="Ellipse_26" class="st0" cx="279.1" cy="1222.8" r="7.3"/>
			<circle id="Ellipse_27" class="st0" cx="310.4" cy="1275.6" r="7.3"/>
			<circle id="Ellipse_28" class="st0" cx="416.7" cy="1409.2" r="7.3"/>
			<circle id="Ellipse_29" class="st0" cx="446" cy="1376.4" r="7.3"/>
			<circle id="Ellipse_30" class="st0" cx="481.8" cy="1334.2" r="7.3"/>
			<circle id="Ellipse_33" class="st0" cx="558.6" cy="1435.9" r="7.3"/>
			<circle id="Ellipse_34" class="st0" cx="356.5" cy="1222.8" r="7.3"/>
			<line id="Line_130" class="st0" x1="249.1" y1="997.4" x2="325.4" y2="1040.6"/>
			<line id="Line_130-2" class="st0" x1="124" y1="955.9" x2="178" y2="982.9"/>
			<path id="Line_131" class="st0" d="M312.1,1055.3l74.6,41.9"/>
			<line id="Line_132" class="st0" x1="425.7" y1="1115.8" x2="531" y2="1173.9"/>
			<line id="Line_133" class="st0" x1="477.8" y1="1174.3" x2="570" y2="1226.9"/>
			<line id="Line_134" class="st0" x1="607.9" y1="1275.8" x2="703.3" y2="1329.9"/>
			<path id="Line_135" class="st0" d="M774.4,1340.7l43.6,24.6"/>
			<path id="Path_211" class="st0" d="M628.1,1215.8"/>
			<path id="Path_212" class="st0" d="M584,1190.8"/>
			<path id="Line_137" class="st0" d="M532.1,1116.6l74.8,42.2"/>
			<line id="Line_138" class="st0" x1="413.8" y1="1069.7" x2="490.1" y2="1112.9"/>
			<path id="Line_139" class="st0" d="M209.4,1032.9l39.3-35.4"/>
			<line id="Line_140" class="st0" x1="291.6" y1="1019.5" x2="304" y2="1008.9"/>
			<path id="Line_141" class="st0" d="M495.2,1153.1l36.8-36.5"/>
			<line id="Line_142" class="st0" x1="312.3" y1="1054.8" x2="314.8" y2="1035.1"/>
			<line id="Line_143" class="st0" x1="677.8" y1="1201.2" x2="752" y2="1242.9"/>
			<line id="Line_144" class="st0" x1="814.9" y1="1234.9" x2="890" y2="1275.9"/>
			<path id="Line_145" class="st0" d="M818.9,1327l27.3,18.9"/>
			<line id="Line_146" class="st0" x1="820.2" y1="1288.5" x2="896.5" y2="1331.7"/>
			<path id="Line_146-2" class="st0" d="M959.2,1318.1l46.9,23.8"/>
			<line id="Line_148" class="st0" x1="650.1" y1="1248.5" x2="725" y2="1290.9"/>
			<path id="Line_149" class="st0" d="M677.8,1201l36.6-33.1"/>
			<path id="Line_150" class="st0" d="M719,1224l42.3-37.3"/>
			<path id="Line_150-2" class="st0" d="M959,1318l42.3-37.3"/>
			<path id="Line_151" class="st0" d="M596.4,1285.9l11.4-10"/>
			<path id="Line_152" class="st0" d="M732.3,1375.5L732.3,1375.5l42.1-34.8"/>
			<path id="Line_153" class="st0" d="M761.5,1394.4l39.4-35.9l1.6-1.5"/>
			<path id="Line_154" class="st0" d="M818.1,1326.8l27.1-24"/>
			<line id="Line_156" class="st0" x1="819.4" y1="1288.1" x2="854.3" y2="1257.2"/>
			<path id="Line_158" class="st0" d="M814.9,1234.9l19.8-19.5"/>
			<path id="Line_159" class="st0" d="M650.1,1248.5l3.5-103.9"/>
			<line id="Line_160" class="st0" x1="477" y1="1209.9" x2="475.8" y2="1145"/>
			<line id="Line_161" class="st0" x1="426" y1="1173.9" x2="425.4" y2="1116"/>
			<path id="Line_162" class="st0" d="M459.9,1094.9v-25.1"/>
			<path id="Line_163" class="st0" d="M597.7,1152.2v-28.6"/>
			<path id="Line_164" class="st0" d="M559.2,1130.5v-22.8"/>
			<path id="Line_165" class="st0" d="M413.1,1068.8V1052"/>
			<circle id="Ellipse_35" class="st0" cx="331.8" cy="1044.2" r="7.3"/>
			<circle id="Ellipse_35-2" class="st0" cx="184.8" cy="986.2" r="7.3"/>
			<circle id="Ellipse_36" class="st0" cx="393.8" cy="1101.6" r="7.3"/>
			<circle id="Ellipse_37" class="st0" cx="497.8" cy="1115.3" r="7.3"/>
			<circle id="Ellipse_38" class="st0" cx="538.3" cy="1177.6" r="7.3"/>
			<circle id="Ellipse_39" class="st0" cx="577.7" cy="1230.9" r="7.3"/>
			<circle id="Ellipse_40" class="st0" cx="710.6" cy="1332.5" r="7.3"/>
			<circle id="Ellipse_41" class="st0" cx="588.2" cy="1404.7" r="7.3"/>
			<circle id="Ellipse_42" class="st0" cx="732.7" cy="1294.4" r="7.3"/>
			<circle id="Ellipse_43" class="st0" cx="759.3" cy="1246" r="7.3"/>
			<circle id="Ellipse_44" class="st0" cx="824.9" cy="1368.5" r="7.3"/>
			<circle id="Ellipse_45" class="st0" cx="895.7" cy="1280.7" r="7.3"/>
			<circle id="Ellipse_46" class="st0" cx="904.6" cy="1336.3" r="7.3"/>
			<circle id="Ellipse_47" class="st0" cx="853.3" cy="1350.4" r="7.3"/>
			<circle id="Ellipse_49" class="st0" cx="614.1" cy="1162" r="7.3"/>
			<line id="Line_166" class="st0" x1="302.8" y1="458.7" x2="377.5" y2="412.9"/>
			<line id="Line_167" class="st0" x1="383.2" y1="432" x2="458" y2="386.3"/>
			<path id="Line_168" class="st0" d="M511.8,358.9l102.8-63.6"/>
			<path id="Line_169" class="st0" d="M600.5,348.4l93-56.7"/>
			<line id="Line_170" class="st0" x1="740.1" y1="277.1" x2="833.6" y2="219.8"/>
			<path id="Line_171" class="st0" d="M877.5,162.8l26.8-17.2"/>
			<path id="Line_172" class="st0" d="M790.6,103.5l62.2-51.8"/>
			<path id="Line_172-2" class="st0" d="M415.6,4.5L456-43.9"/>
			<line id="Line_173" class="st0" x1="963" y1="141.9" x2="1029" y2="101.9"/>
			<path id="Path_213" class="st0" d="M697.4,230.3"/>
			<path id="Path_214" class="st0" d="M654.2,256.8"/>
			<path id="Line_174" class="st0" d="M564.1,266.2l73.1-44.7"/>
			<path id="Line_175" class="st0" d="M454.2,341.3l75.8-45.9"/>
			<path id="Line_176" class="st0" d="M313.7,510l-10-45.2l-1.2-5.6"/>
			<path id="Line_177" class="st0" d="M347.3,430.5l-7.5-33.7"/>
			<path id="Line_178" class="st0" d="M633.5,364.1l-9.2-28.4"/>
			<path id="Line_179" class="st0" d="M575.1,319.7l-11-53.3"/>
			<line id="Line_180" class="st0" x1="382.8" y1="431.7" x2="366.8" y2="419.9"/>
			<line id="Line_181" class="st0" x1="708.6" y1="179.8" x2="781" y2="134.9"/>
			<path id="Line_182" class="st0" d="M735.3,227.3l75.1-45.7"/>
			<path id="Line_183" class="st0" d="M707.8,180.4l-13.4-57.5"/>
			<path id="Line_184" class="st0" d="M748.4,154.6L733,92.5"/>
			<path id="Line_185" class="st0" d="M749.9,310.8l-9.8-33.6"/>
			<path id="Line_186" class="st0" d="M895.8,244.2l-18.2-81.2"/>
			<path id="Line_187" class="st0" d="M914.8,235.7l-19.1-84.2"/>
			<path id="Line_188" class="st0" d="M982.7,202l-19.8-60"/>
			<path id="Line_190" class="st0" d="M790.6,103.4l-20.1-42.6"/>
			<path id="Line_190-2" class="st0" d="M415.6,4.4l-20.1-42.6"/>
			<path id="Line_191" class="st0" d="M735.2,227.2l-98-57.4"/>
			<line id="Line_192" class="st0" x1="600.3" y1="348.6" x2="561.6" y2="329.3"/>
			<path id="Line_193" class="st0" d="M570.3,395.2l-58.5-36"/>
			<path id="Line_194" class="st0" d="M499.6,313.1l-26.1-18.8"/>
			<path id="Line_195" class="st0" d="M628.1,226.6l-36.8-23.3"/>
			<path id="Line_196" class="st0" d="M590,249.7l-33.6-21"/>
			<path id="Line_197" class="st0" d="M681.8,342.7l-34-22.8"/>
			<line id="Line_198" class="st0" x1="454.1" y1="341.3" x2="429" y2="326.9"/>
			<circle id="Ellipse_50" class="st0" cx="383.5" cy="408" r="7.3"/>
			<circle id="Ellipse_51" class="st0" cx="463.5" cy="381.4" r="7.3"/>
			<path id="Line_199" class="st0" d="M188.7,537.5l74.9-45.4"/>
			<path id="Line_200" class="st0" d="M188.4,537.5l-16.7-11.4"/>
			<circle id="Ellipse_52" class="st0" cx="269.1" cy="487.2" r="7.3"/>
			<circle id="Ellipse_53" class="st0" cx="535.9" cy="289.8" r="7.3"/>
			<circle id="Ellipse_54" class="st0" cx="620.5" cy="290.3" r="7.3"/>
			<circle id="Ellipse_55" class="st0" cx="699" cy="286.3" r="7.3"/>
			<circle id="Ellipse_56" class="st0" cx="839.4" cy="214.7" r="7.3"/>
			<circle id="Ellipse_57" class="st0" cx="816.8" cy="176.9" r="7.3"/>
			<circle id="Ellipse_58" class="st0" cx="787.3" cy="130.1" r="7.3"/>
			<circle id="Ellipse_59" class="st0" cx="911.9" cy="141.5" r="7.3"/>
			<circle id="Ellipse_61" class="st0" cx="643.6" cy="216.5" r="7.3"/>
		</g>
	</g>
	<g id="LogoEDesktop" transform="translate(502.967 153.099)">
		<g id="Layer_2-2" transform="translate(247.604 194.917) rotate(-3)">
			<path id="Path_130" class="st0" d="M1013.5,566.5"/>
			<path id="Path_131" class="st0" d="M1017.8,585"/>
			<path id="Line_5" class="st0" d="M991.1,548.4L748.8,385.2"/>
			<path id="Path_193" class="st0" d="M748.8,385.2l-6.4-30.1"/>
			<line id="Line_7" class="st0" x1="255.2" y1="120.5" x2="236" y2="-14.2"/>
			<path id="Line_8" class="st0" d="M236.4,219.7l-6.6-30"/>
			<path id="Line_9" class="st0" d="M134.3,171.4l-9.6-53.6"/>
			<path id="Line_10" class="st0" d="M312,256.4l-6.1-59.3"/>
			<line id="Line_11" class="st0" x1="746.2" y1="375.7" x2="731.9" y2="375.7"/>
			<path id="Path_191" class="st0" d="M602.4,362l-53.5,9.8"/>
			<path id="Path_190" class="st0" d="M595.7,319.8L519.6,335"/>
			<line id="Line_14" class="st0" x1="731.4" y1="375.7" x2="707.1" y2="363.5"/>
			<line id="Line_15" class="st0" x1="908" y1="542.6" x2="748.3" y2="429.6"/>
			<path id="Path_186" class="st0" d="M803.7,469.8l-26.1,10.8"/>
			<line id="Line_17" class="st0" x1="851.3" y1="502.5" x2="837.5" y2="507"/>
			<path id="Line_18" class="st0" d="M765.5,442.5l-36.6,14.9"/>
			<path id="Path_188" class="st0" d="M748.3,429.6l-43.3,4.8"/>
			<line id="Line_20" class="st0" x1="447.6" y1="285.9" x2="388.3" y2="294.3"/>
			<line id="Line_21" class="st0" x1="497.8" y1="320.8" x2="458.2" y2="327.8"/>
			<path id="Path_196" class="st0" d="M531,187.2l-61.2,7.1"/>
			<path id="Path_195" class="st0" d="M512.3,224.2l-42.6,5.2"/>
			<line id="Line_24" class="st0" x1="368.8" y1="162.8" x2="325.5" y2="168"/>
			<path id="Path_194" class="st0" d="M601.7,245.9l-48.8,5.7"/>
			<line id="Line_26" class="st0" x1="704.9" y1="434.4" x2="602.4" y2="362"/>
			<path id="Path_187" class="st0" d="M723.7,432.2l-12.8-33.5"/>
			<line id="Line_28" class="st0" x1="710.7" y1="398.4" x2="573.9" y2="304.4"/>
			<line id="Line_29" class="st0" x1="519.5" y1="335" x2="382.6" y2="241"/>
			<line id="Line_30" class="st0" x1="323.9" y1="167.5" x2="187.1" y2="73.5"/>
			<path id="Path_132" class="st0" d="M568.1,291.2c4.4,0,7.9,3.5,7.9,7.9c0,4.4-3.5,7.9-7.9,7.9c-4.4,0-7.9-3.5-7.9-7.9
				C560.1,294.7,563.7,291.2,568.1,291.2L568.1,291.2z"/>
			<path id="Path_133" class="st0" d="M409,143.7c4.4,0,7.9,3.5,7.9,7.9c0,4.4-3.5,7.9-7.9,7.9c-4.4,0-7.9-3.5-7.9-7.9c0,0,0,0,0,0
				C401.1,147.3,404.6,143.7,409,143.7z"/>
			<path id="Path_134" class="st0" d="M325,122.1c4.4,0,7.9,3.5,7.9,7.9c0,4.4-3.5,7.9-7.9,7.9c-4.4,0-7.9-3.5-7.9-7.9
				C317.1,125.6,320.6,122.1,325,122.1L325,122.1z"/>
			<path id="Path_135" class="st0" d="M181.3,61.3c4.4,0,7.9,3.5,7.9,7.9c0,4.4-3.5,7.9-7.9,7.9s-7.9-3.5-7.9-7.9l0,0
				C173.3,64.8,176.9,61.3,181.3,61.3z"/>
			<path id="Path_136" class="st0" d="M162.2,89.3c4.4,0,7.9,3.5,7.9,7.9c0,4.4-3.5,7.9-7.9,7.9s-7.9-3.5-7.9-7.9
				C154.3,92.9,157.9,89.3,162.2,89.3L162.2,89.3z"/>
			<path id="Path_137" class="st0" d="M86.1,81.9c4.4,0,7.9,3.5,7.9,7.9s-3.5,7.9-7.9,7.9s-7.9-3.5-7.9-7.9v0
				C78.2,85.5,81.8,81.9,86.1,81.9z"/>
			<path id="Path_138" class="st0" d="M6.5,61c4.4,0,7.9,3.5,7.9,7.9c0,4.4-3.5,7.9-7.9,7.9s-7.9-3.5-7.9-7.9
				C-1.5,64.6,2.1,61,6.5,61L6.5,61z"/>
			<path id="Path_139" class="st0" d="M631.5,312.8c4.4,0,7.9,3.5,7.9,7.9c0,4.4-3.5,7.9-7.9,7.9c-4.4,0-7.9-3.5-7.9-7.9
				C623.6,316.4,627.1,312.8,631.5,312.8L631.5,312.8z"/>
			<path id="Path_140" class="st0" d="M376.2,228.8c4.4,0,7.9,3.5,7.9,7.9c0,4.4-3.5,7.9-7.9,7.9c-4.4,0-7.9-3.5-7.9-7.9
				c0,0,0,0,0,0C368.3,232.4,371.9,228.8,376.2,228.8z"/>
			<line id="Line_31" class="st0" x1="229.3" y1="189.2" x2="93" y2="95.1"/>
			<line id="Line_32" class="st0" x1="306" y1="196" x2="169.1" y2="102.5"/>
			<path id="Line_33" class="st0" d="M131.1,153.6L14.9,73.8"/>
			<line id="Line_34" class="st0" x1="469.3" y1="229.3" x2="332.4" y2="135.8"/>
			<line id="Line_35" class="st0" x1="552.7" y1="251.5" x2="415.9" y2="157.5"/>
			<path id="Path_189" class="st0" d="M667.2,368l-2.4-22.4"/>
			<line id="Line_37" class="st0" x1="664.8" y1="345.6" x2="638.3" y2="325.5"/>
			<path id="Path_142" class="st0" d="M700.2,349.8c4.4,0,7.9,3.5,7.9,7.9c0,4.4-3.5,7.9-7.9,7.9c-4.4,0-7.9-3.5-7.9-7.9
				S695.8,349.8,700.2,349.8L700.2,349.8z"/>
		</g>
		<g id="Layer_3" transform="translate(668.116 61.923)">
			<g id="Layer_2-3">
				<path id="Path_143" class="st0" d="M974.4,585"/>
				<path id="Path_200" class="st0" d="M451.9,439.9L254.8,302.5"/>
				<path id="Path_206" class="st0" d="M211.8,120L197.1,19.6"/>
				<path id="Line_45" class="st0" d="M200.8,302.3l-14.3-112.6"/>
				<path id="Line_46" class="st0" d="M95.8,228.1L81.3,117.8"/>
				<path id="Path_203" class="st0" d="M280.1,319.8l-17.5-123.6"/>
				<path id="Path_201" class="st0" d="M493.2,329.9l-17.1,5.2"/>
				<path id="Line_49" class="st0" d="M627.3,491.3l-76.2,15.2"/>
				<path id="Path_198" class="st0" d="M631,562.5l-41.5,7.9"/>
				<path id="Line_51" class="st0" d="M677.8,595.6l-42.3,7"/>
				<path id="Path_144" class="st0" d="M794.2,505.8"/>
				<path id="Line_52" class="st0" d="M569.8,419.8L452,440"/>
				<path id="Path_145" class="st0" d="M517.9,409.1"/>
				<path id="Path_146" class="st0" d="M560.7,403.8"/>
				<path id="Path_204" class="st0" d="M326.8,162.3l-45.9,5.3"/>
				<path id="Path_202" class="st0" d="M304.6,337.6l-40.1,4.1"/>
				<line id="Line_56" class="st0" x1="476.1" y1="335" x2="339.2" y2="241"/>
				<path id="Path_199" class="st0" d="M492.9,432.2l-135.5-94"/>
				<line id="Line_58" class="st0" x1="280.5" y1="167.5" x2="143.7" y2="73.5"/>
				<path id="Path_149" class="st0" d="M281.6,122.1c4.4,0,7.9,3.5,7.9,7.9c0,4.4-3.5,7.9-7.9,7.9s-7.9-3.5-7.9-7.9v0
					C273.7,125.7,277.2,122.1,281.6,122.1C281.6,122.1,281.6,122.1,281.6,122.1z"/>
				<path id="Path_150" class="st0" d="M137.9,61.4c4.4,0,7.9,3.5,7.9,7.9c0,4.4-3.5,7.9-7.9,7.9c-4.4,0-7.9-3.5-7.9-7.9
					c0,0,0,0,0,0C129.9,64.9,133.5,61.4,137.9,61.4z"/>
				<path id="Path_151" class="st0" d="M118.8,89.4c4.4,0,7.9,3.5,7.9,7.9c0,4.4-3.5,7.9-7.9,7.9s-7.9-3.5-7.9-7.9c0,0,0,0,0,0
					C110.9,92.9,114.5,89.4,118.8,89.4z"/>
				<path id="Path_152" class="st0" d="M42.8,82c4.4,0,7.9,3.5,7.9,7.9c0,4.4-3.5,7.9-7.9,7.9c-4.4,0-7.9-3.5-7.9-7.9c0,0,0,0,0,0
					C34.8,85.5,38.4,82,42.8,82z"/>
				<path id="Path_153" class="st0" d="M7.9,105.6c4.4,0,7.9,3.5,7.9,7.9c0,4.4-3.5,7.9-7.9,7.9S0,117.9,0,113.5
					S3.5,105.6,7.9,105.6L7.9,105.6z"/>
				<path id="Path_154" class="st0" d="M249.2,289c4.4,0,7.9,3.5,7.9,7.9c0,4.4-3.5,7.9-7.9,7.9c-4.4,0-7.9-3.5-7.9-7.9c0,0,0,0,0,0
					C241.2,292.6,244.8,289,249.2,289z"/>
				<line id="Line_59" class="st0" x1="694.7" y1="606.9" x2="502.4" y2="472.5"/>
				<path id="Path_197" class="st0" d="M715,602.5c0,0-19.4,4.4-20.1,4.4"/>
				<path id="Path_155" class="st0" d="M495.7,458.6c4.4,0,7.9,3.5,7.9,7.9s-3.5,7.9-7.9,7.9s-7.9-3.5-7.9-7.9
					S491.3,458.6,495.7,458.6L495.7,458.6z"/>
				<path id="Path_156" class="st0" d="M331.8,228.2c4.4,0,7.9,3.5,7.9,7.9s-3.5,7.9-7.9,7.9s-7.9-3.5-7.9-7.9c0,0,0,0,0,0
					C323.8,231.8,327.4,228.2,331.8,228.2z"/>
				<path id="Path_157" class="st0" d="M351,324c4.4,0,7.9,3.5,7.9,7.9s-3.5,7.9-7.9,7.9s-7.9-3.5-7.9-7.9S346.6,324,351,324
					L351,324z"/>
				<line id="Line_61" class="st0" x1="186" y1="189.2" x2="49.6" y2="95.1"/>
				<line id="Line_62" class="st0" x1="262.6" y1="196" x2="125.7" y2="102.5"/>
				<line id="Line_63" class="st0" x1="88.2" y1="169.6" x2="15.9" y2="120"/>
				<path id="Path_205" class="st0" d="M408.6,219.2l-41.3-29.9l-79.1-54"/>
				<path id="Path_158" class="st0" d="M595,325.6"/>
			</g>
		</g>
	</g>
	<g id="Group_1" transform="translate(1838.9 552.9)">
		<path id="Path_1" class="st0" d="M-406.2-401.9C-110.8-20,259.5,448.9,259.5,448.9l-0.4-176.4c0,0-25.7-82.9-46-161.2
			S192.6-40.8,192.6-40.8l39.7-16.8c0,0-13.3,90.9,0,168.9S272.7,254,272.7,254c2.8-3,6.7-4.8,10.7-5.1c4.2-0.3,8.3,1.7,10.7,5.1
			c0,0,32.6-64.9,47-142.8s-7.7-168.9-7.7-168.9l36.9,16.7c0,0,8.3,70.8-9.6,152.1s-50.3,161.2-50.3,161.2l0.4,176.4
			c0,0,514.1-788.7,561-850.8c288,70.9,926.3,254.5,926.3,254.5c0.1,0.7-1480.5,649.5-1480.5,649.5s1479.7,543.5,1480.5,544.4
			c-2.9,0.9-899.1,276.7-899.1,276.7L310.9,549.1c0,0-5,114.7-4.9,166.1c0.1,38-1,76-2.5,113.9c-0.4,9.7-3.7,19.5-6.8,28.9
			c-1.9,5.7-5.8,11-13.2,10.1c-7.6-1-14.4-3.5-16.1-12.4c-1.2-6.5-3.1-13-3.5-19.6c-1-15.3-1.6-30.6-1.8-45.9
			c-0.7-61.7-2-219.5-2.5-271.6c-0.1-10.3-0.1-16.5-0.1-16.5s-7.3-2.8-21.1-8C83.9,435.7-878.1,70.5-1378.9-147.4
			C-1374.8-148.8-406.9-401.9-406.2-401.9z M-1186.5-140c0,0,856.4,351.6,1255,525.6c1.1,0.5-894.6-622.8-894.6-622.8L-1186.5-140z
			 M-753.3-240c1.2,1.4,895.8,625.6,896,625.6C143,385.5-422-331.5-422-331.5S-749.8-241.1-753.3-240z M1627.1-140
			c-1.3-0.4-334.6-97.2-334.6-97.2S667.5,252.1,479.7,385.6C479.6,385.7,1627.3-139.1,1627.1-140z M466.2,607.7
			c3.2,2.3,795.6,523.4,795.6,523.4s316.6-86.3,318.8-87.1C1580.5,1043.4,464.7,606.8,466.2,607.7z M412.3,385.6
			c0.5,0.5,538.9-443,795.9-625.6c-3-1.2-308.5-91.5-308.5-91.5S410.9,387,412.3,385.6z M412.3,607.7
			c-1.7-1.1,357.9,407.1,526.8,610.1c93.2-24.8,186.1-49.3,281-74.8C957,963.5,673.3,785.6,412.3,607.7L412.3,607.7z"/>
	</g>
</g>
</svg>
